<svg width="635" height="515" viewBox="0 0 635 515" fill="none" xmlns="http://www.w3.org/2000/svg">
<path d="M317.861 149.25C319.551 149.38 321.241 149.58 322.941 149.61C339.011 149.95 353.881 154.64 368.041 161.93C379.651 167.91 389.691 175.93 398.361 185.67C411.051 199.93 419.601 216.32 423.591 235.04C424.851 240.97 425.691 246.94 425.941 253C426.591 269.01 424.041 284.47 418.021 299.34C412.601 312.74 404.561 324.42 394.491 334.73C383.591 345.88 370.851 354.23 356.281 359.78C348.591 362.71 340.681 364.81 332.511 365.88C324.221 366.97 315.901 367.17 307.561 366.49C294.151 365.41 281.451 361.77 269.431 355.8C248.451 345.39 232.501 329.71 221.331 309.18C216.571 300.43 213.231 291.12 211.131 281.37C209.591 274.21 208.701 266.98 208.631 259.65C208.441 239.71 213.111 221.04 223.161 203.78C230.721 190.79 240.491 179.72 252.561 170.75C264.591 161.81 277.921 155.6 292.541 152.17C299.861 150.45 307.281 149.5 314.801 149.41C315.111 149.41 315.421 149.3 315.731 149.24C316.441 149.24 317.151 149.24 317.861 149.24V149.25ZM225.151 236.94C225.151 236.94 225.241 236.94 225.281 236.94C225.281 237.34 225.271 237.74 225.281 238.15C225.451 243.52 225.561 248.89 225.821 254.26C226.141 260.86 227.121 267.38 228.441 273.84C231.751 290.04 237.261 305.47 244.981 320.11C248.181 326.18 252.181 331.42 257.861 335.49C266.301 341.54 275.321 346.24 285.381 348.86C294.461 351.23 303.731 352.1 313.081 352.3C321.551 352.48 330.001 352.19 338.411 351.06C344.061 350.3 349.631 349.14 355.051 347.35C362.881 344.77 369.961 340.74 376.711 336.06C381.811 332.53 385.911 328.15 388.951 322.75C393.991 313.77 398.081 304.38 401.371 294.64C404.451 285.51 406.821 276.2 408.151 266.65C408.881 261.43 409.471 256.18 409.801 250.93C410.101 246.08 409.971 241.21 410.021 236.35C410.021 235.84 410.021 235.33 410.021 234.82C410.921 237.46 411.661 240.08 412.351 242.72C413.981 249.01 417.931 253.61 422.981 257.41C424.151 254.07 421.251 235.29 417.971 225.38C410.311 202.18 396.251 183.86 376.091 170.09C338.101 144.14 284.111 146.13 247.721 178.41C229.041 194.98 217.381 215.5 212.981 240.1C212.071 245.2 211.601 250.35 211.681 255.55C212.001 255.37 212.191 255.16 212.331 254.93C213.701 252.7 215.511 250.88 217.681 249.43C220.431 247.59 222.321 245.11 223.411 242C224.001 240.32 224.571 238.63 225.151 236.94Z" fill="white"/>
<path d="M246.33 233.39C246.65 227.8 246.9 222.21 247.32 216.64C247.63 212.62 248.55 208.71 249.82 204.88C251.17 200.8 253.68 197.67 257.4 195.48C263.15 192.1 269.42 190.13 275.84 188.53C281.81 187.04 287.88 186.18 293.97 185.39C299.73 184.64 305.51 184.45 311.3 184.4C314.45 184.37 317.61 184.23 320.76 184.32C326.87 184.5 333.01 184.46 339.07 185.13C349.42 186.28 359.73 187.83 369.6 191.42C373.27 192.76 376.79 194.38 380.03 196.6C383.06 198.67 384.75 201.62 385.84 205.01C387.68 210.74 388.78 216.6 388.82 222.63C388.84 225.62 388.85 228.61 388.82 231.6C388.76 236.17 388.82 240.74 388.52 245.29C388.22 249.68 387.63 254.05 386.97 258.41C386.05 264.48 385.07 270.54 383.92 276.57C381.12 291.18 377.32 305.52 372.16 319.49C370.73 323.37 368.2 326.07 364.77 328.19C358.59 332.02 351.92 334.5 344.82 335.91C339.13 337.04 333.4 337.88 327.61 338.05C321.73 338.22 315.83 338.36 309.95 338.18C300.34 337.88 290.85 336.6 281.71 333.42C277.19 331.84 272.96 329.68 269.02 326.96C266.65 325.33 264.98 323.17 263.95 320.44C258.61 306.29 254.55 291.78 251.82 276.92C250.19 268.07 248.8 259.17 247.63 250.25C246.97 245.22 246.97 240.11 246.68 235.04C246.65 234.5 246.68 233.95 246.68 233.4C246.56 233.4 246.45 233.39 246.33 233.38V233.39ZM325.26 266.91C325.58 266.86 325.7 266.82 325.83 266.82C329.82 266.82 333.82 266.82 337.81 266.8C338.36 266.8 338.54 267.03 338.58 267.53C338.8 270.03 339.15 272.53 339.24 275.03C339.5 282.08 339.66 289.13 339.82 296.17C339.84 296.9 340.06 297.11 340.77 297.1C343.6 297.07 346.44 297.09 349.27 297.09C350.67 297.09 350.71 297.09 350.71 295.65C350.69 287.76 350.76 279.87 350.58 271.99C350.38 263.19 349.56 254.44 347.85 245.8C346.41 238.53 344.19 231.53 340.67 224.97C340.1 223.9 339.36 223.47 338.14 223.48C332.86 223.53 327.58 223.5 322.29 223.5C319.52 223.5 316.75 223.51 313.98 223.5C313.29 223.5 312.95 223.68 312.97 224.49C313.06 227.45 313.07 230.41 313.11 233.38C313.32 248.16 313.53 262.94 313.73 277.71C313.82 283.83 313.9 289.95 313.96 296.06C313.96 296.84 314.2 297.13 315.01 297.12C318.1 297.08 321.19 297.09 324.29 297.12C324.93 297.12 325.27 296.96 325.2 296.26C325.16 295.88 325.22 295.49 325.22 295.1C325.23 286.89 325.24 278.67 325.26 270.46C325.26 269.31 325.26 268.15 325.26 266.94V266.91ZM288.53 223.65C288.01 223.59 287.69 223.52 287.37 223.52C279.26 223.55 271.14 223.6 263.03 223.62C262.26 223.62 262.03 223.89 262.06 224.64C262.35 232.52 262.62 240.4 262.88 248.29C263.27 260.26 263.65 272.23 264.03 284.2C264.16 288.19 264.29 292.18 264.39 296.17C264.41 296.88 264.66 297.1 265.36 297.09C268.64 297.06 271.93 297.08 275.21 297.07C275.49 297.07 275.77 297.02 276.11 296.98C276.11 296.61 276.11 296.33 276.11 296.04C276.03 286.54 275.96 277.04 275.86 267.55C275.86 266.77 276.09 266.57 276.84 266.58C279.32 266.62 281.8 266.6 284.28 266.6H285.25C285.35 266.43 285.41 266.37 285.41 266.32C285.41 263.39 285.41 260.47 285.41 257.54C285.41 256.91 284.96 256.94 284.53 256.94C282.05 256.94 279.57 256.94 277.09 256.94C276.72 256.94 276.35 256.9 276.02 256.88V233.18C276.61 233.18 276.99 233.18 277.37 233.18C280.78 233.18 284.2 233.16 287.61 233.2C288.37 233.2 288.63 232.98 288.6 232.22C288.53 230.52 288.52 228.81 288.5 227.1C288.49 225.98 288.5 224.86 288.5 223.66L288.53 223.65ZM358.31 232.89C358.33 233.38 358.36 233.76 358.36 234.14C358.34 246.31 358.32 258.49 358.3 270.66C358.3 270.82 358.3 270.98 358.3 271.14C358.26 279.45 358.23 287.76 358.17 296.06C358.17 296.86 358.4 297.11 359.21 297.1C362.37 297.06 365.52 297.05 368.68 297.1C369.6 297.12 369.9 296.83 369.93 295.92C370.52 279.8 371.14 263.69 371.75 247.57C371.92 243.03 372.12 238.5 372.29 233.96C372.32 233.14 372.56 232.78 373.48 232.81C375.89 232.88 378.31 232.81 380.73 232.85C381.42 232.85 381.7 232.68 381.68 231.94C381.63 229.46 381.62 226.98 381.64 224.5C381.64 223.76 381.35 223.58 380.67 223.58C370.46 223.6 360.25 223.6 350.04 223.58C349.34 223.58 349.04 223.79 349.05 224.5C349.09 227.04 349.11 229.58 349.11 232.12C349.11 232.78 349.45 232.92 350.02 232.91C351.15 232.88 352.27 232.91 353.4 232.91C355 232.91 356.61 232.91 358.3 232.91L358.31 232.89ZM306.72 223.66H293.07C293.05 224.02 293.02 224.31 293.02 224.59C293.12 230.48 293.22 236.37 293.34 242.26C293.56 253.3 293.79 264.33 294.01 275.37C294.15 282.22 294.29 289.08 294.4 295.93C294.41 296.76 294.62 297.11 295.55 297.1C298.87 297.04 302.18 297.05 305.5 297.1C306.31 297.1 306.52 296.84 306.53 296.05C306.55 285.33 306.62 274.61 306.65 263.89C306.69 251.3 306.7 238.71 306.72 226.12C306.72 225.32 306.72 224.52 306.72 223.66Z" fill="white"/>
<path d="M407.191 242.7C406.901 247.97 406.801 253.29 406.281 258.56C405.281 268.72 403.251 278.7 400.311 288.49C397.521 297.79 393.951 306.77 389.661 315.48C388.101 318.64 386.091 321.37 382.711 322.8C379.811 324.03 378.961 323.47 378.761 320.32C378.491 316.06 379.561 312.03 380.771 308.01C384.021 297.2 386.711 286.25 388.821 275.15C390.431 266.71 391.861 258.24 392.601 249.69C393.151 243.32 393.411 236.91 393.651 230.52C393.891 224.14 393.531 217.79 392.491 211.48C391.781 207.21 390.661 203.06 388.921 199.09C387.471 195.76 384.791 193.57 381.781 191.71C375.431 187.78 368.431 185.55 361.241 183.83C354.131 182.12 346.921 180.98 339.651 180.35C334.781 179.93 329.891 179.71 325.011 179.53C321.051 179.39 317.091 179.39 313.131 179.42C300.391 179.5 287.771 180.79 275.331 183.64C269.231 185.03 263.231 186.75 257.651 189.63C255.071 190.96 252.591 192.6 250.311 194.4C247.101 196.93 245.871 200.71 244.791 204.48C243.341 209.57 242.391 214.77 242.291 220.06C242.151 227.17 242.051 234.29 242.341 241.39C242.731 250.75 244.271 259.99 245.831 269.22C247.361 278.26 249.211 287.23 251.551 296.09C252.921 301.28 254.431 306.43 255.871 311.61C256.811 314.99 257.241 318.41 256.591 321.91C256.361 323.15 256.071 323.46 254.811 323.38C252.791 323.25 251.311 322.03 249.831 320.83C247.321 318.79 245.981 315.96 244.631 313.14C239.241 301.93 235.091 290.28 232.421 278.14C231.141 272.31 230.231 266.39 229.381 260.48C228.321 253.11 228.031 245.67 228.231 238.23C228.531 227.21 230.391 216.47 234.671 206.26C238.041 198.21 243.541 191.88 250.881 187.21C260.791 180.9 271.411 176.11 282.681 172.79C289.421 170.81 296.271 169.37 303.231 168.47C308.511 167.79 313.821 167.74 319.131 167.95C322.281 168.07 325.461 167.91 328.591 168.22C332.871 168.64 337.151 169.23 341.371 170.03C356.591 172.91 370.671 178.75 383.871 186.78C392.581 192.07 398.451 199.67 401.911 209.2C403.981 214.9 405.551 220.76 406.231 226.77C406.831 232.03 406.881 237.36 407.181 242.71L407.191 242.7Z" fill="white"/>
<path d="M271.58 337.15C272.04 337.12 272.52 337 272.95 337.09C278.33 338.2 283.7 339.33 289.08 340.47C294.66 341.66 300.29 342.4 305.98 342.74C309.74 342.96 313.5 343.24 317.26 343.22C329.88 343.17 342.36 341.93 354.59 338.62C357.13 337.93 359.75 337.57 362.35 337.13C362.8 337.05 363.31 337.3 363.79 337.39C363.6 337.85 363.51 338.38 363.21 338.76C361.42 340.99 359.12 342.55 356.5 343.66C352.3 345.45 347.89 346.46 343.44 347.33C337.45 348.5 331.41 348.99 325.31 348.96C319.64 348.93 313.98 349.1 308.31 349.04C298.99 348.93 289.89 347.32 281.01 344.52C277.52 343.42 274.66 341.3 272.18 338.65C271.87 338.32 271.68 337.87 271.43 337.47C271.48 337.36 271.53 337.26 271.58 337.15Z" fill="white"/>
<path d="M324.98 257.36V232.74C327.09 232.74 329.15 232.72 331.2 232.77C331.44 232.77 331.75 233.17 331.89 233.45C333.52 236.62 334.72 239.96 335.44 243.43C336.36 247.87 337.06 252.35 337.85 256.82C337.88 256.97 337.85 257.13 337.85 257.36H324.98Z" fill="white"/>
</svg>
