<svg width="466" height="200" viewBox="0 0 466 200" fill="none" xmlns="http://www.w3.org/2000/svg">
<path d="M199.333 22.2762C204.593 26.2167 209.573 29.9458 214.547 33.6693C215.221 34.1718 215.929 34.6401 216.574 35.1826C219.31 37.5012 219.818 40.5793 217.922 43.1492C216.009 45.7362 212.839 46.313 209.933 44.2628C203.731 39.894 197.711 35.274 191.458 30.9795C189.899 29.9058 187.763 29.1977 185.873 29.1577C176.724 28.975 167.57 29.0892 158.415 29.0721C154.052 29.0606 151.277 26.5707 151.26 22.7388C151.243 18.8669 153.961 16.417 158.381 16.3998C167.416 16.3713 176.45 16.4626 185.479 16.3084C187.158 16.2799 189.042 15.6803 190.447 14.7494C196.478 10.7747 202.36 6.57155 208.299 2.45978C209.093 1.91154 209.875 1.34046 210.715 0.883601C213.622 -0.698289 216.523 0.026982 218.202 2.79672C219.886 5.57787 219.076 7.91359 216.614 9.71248C211.948 13.1275 207.22 16.4455 202.526 19.8149C201.566 20.5059 200.647 21.254 199.333 22.2762Z" fill="black"/>
<path d="M265.824 22.453C260.382 18.5468 255.111 14.7834 249.862 10.9915C246.099 8.27313 245.26 5.13791 247.441 2.15687C249.474 -0.618573 252.609 -0.721367 256.344 1.88275C262.369 6.0859 268.314 10.4147 274.459 14.4408C276.138 15.543 278.394 16.2454 280.404 16.2911C289.198 16.4853 297.993 16.3539 306.793 16.3825C311.225 16.3939 313.909 18.8153 313.96 22.7214C314.006 26.6219 311.328 29.0547 306.868 29.0661C297.588 29.089 288.307 28.9919 279.033 29.1461C277.371 29.1746 275.481 29.8142 274.116 30.7679C268.091 34.9711 262.221 39.3969 256.281 43.7257C252.786 46.2727 249.651 46.2271 247.647 43.6344C245.471 40.8189 246.185 37.8036 249.805 35.0396C254.876 31.1677 259.999 27.3529 265.093 23.5095C265.276 23.3725 265.373 23.1269 265.836 22.453H265.824Z" fill="black"/>
<path d="M253.963 116.156V83.4786H232.741V70.972H290.529V83.4786H269.308V116.156H253.963Z" fill="black"/>
<path d="M265.156 123.243H258.252C256.375 123.243 254.854 124.764 254.854 126.641V133.545C254.854 135.422 256.375 136.943 258.252 136.943H265.156C267.032 136.943 268.554 135.422 268.554 133.545V126.641C268.554 124.764 267.032 123.243 265.156 123.243Z" stroke="black" stroke-width="2.56986" stroke-miterlimit="10"/>
<path d="M72.0283 138.416C66.8543 138.416 62.0515 137.571 57.6143 135.881C53.177 134.19 49.3279 131.78 46.0727 128.651C42.8176 125.521 40.2763 121.849 38.4603 117.635C36.6442 113.42 35.7305 108.789 35.7305 103.746C35.7305 98.7035 36.6385 94.0721 38.4603 89.8575C40.282 85.643 42.8347 81.9709 46.1241 78.8414C49.4136 75.7119 53.2626 73.3019 57.6657 71.6116C62.0744 69.9212 66.8943 69.076 72.1311 69.076C77.939 69.076 83.1929 70.0811 87.8872 72.0913C92.5814 74.1015 96.5219 77.0596 99.7142 80.9487L89.7546 90.1431C87.4531 87.5275 84.9004 85.563 82.0907 84.2495C79.281 82.9418 76.2143 82.285 72.8963 82.285C69.7668 82.285 66.8943 82.799 64.273 83.8155C61.6518 84.8377 59.3903 86.3054 57.4715 88.2242C55.5527 90.1431 54.0736 92.4045 53.0171 95.0258C51.9663 97.6471 51.4352 100.548 51.4352 103.74C51.4352 106.933 51.9606 109.84 53.0171 112.455C54.0736 115.076 55.5584 117.338 57.4715 119.257C59.3846 121.176 61.6518 122.643 64.273 123.66C66.8886 124.682 69.7668 125.19 72.8963 125.19C76.2143 125.19 79.281 124.539 82.0907 123.226C84.9004 121.918 87.4531 119.919 89.7546 117.241L99.7142 126.435C96.5219 130.33 92.5757 133.3 87.8872 135.344C83.1929 137.388 77.9104 138.411 72.034 138.411L72.0283 138.416Z" fill="black"/>
<path d="M109.285 137.269V70.2181H124.802V124.625H158.421V137.269H109.285Z" fill="black"/>
<path d="M196.067 138.416C186.553 138.416 179.111 135.767 173.749 130.467C168.387 125.167 165.703 117.601 165.703 107.767V70.2181H181.219V107.19C181.219 113.574 182.527 118.172 185.148 120.981C187.763 123.791 191.435 125.196 196.164 125.196C200.892 125.196 204.559 123.791 207.18 120.981C209.796 118.172 211.109 113.574 211.109 107.19V70.2181H226.437V107.767C226.437 117.601 223.753 125.167 218.39 130.467C213.028 135.767 205.587 138.416 196.073 138.416H196.067Z" fill="black"/>
<path d="M330.744 138.416C325.57 138.416 320.768 137.571 316.33 135.881C311.893 134.19 308.044 131.78 304.789 128.651C301.534 125.521 298.992 121.849 297.176 117.635C295.36 113.42 294.447 108.789 294.447 103.746C294.447 98.7036 295.355 94.0721 297.176 89.8576C298.998 85.643 301.551 81.9709 304.84 78.8414C308.13 75.7119 311.979 73.302 316.382 71.6116C320.79 69.9212 325.61 69.076 330.847 69.076C336.655 69.076 341.909 70.0811 346.603 72.0913C351.297 74.1015 355.238 77.0597 358.43 80.9487L348.471 90.1431C346.169 87.5275 343.616 85.563 340.807 84.2495C337.997 82.9418 334.93 82.285 331.612 82.285C328.483 82.285 325.61 82.799 322.989 83.8155C320.368 84.8378 318.106 86.3054 316.188 88.2243C314.269 90.1431 312.79 92.4046 311.733 95.0258C310.682 97.6471 310.151 100.548 310.151 103.74C310.151 106.933 310.677 109.84 311.733 112.455C312.79 115.076 314.274 117.338 316.188 119.257C318.101 121.176 320.368 122.643 322.989 123.66C325.605 124.682 328.483 125.19 331.612 125.19C334.93 125.19 337.997 124.539 340.807 123.226C343.616 121.918 346.169 119.919 348.471 117.241L358.43 126.435C355.238 130.33 351.292 133.3 346.603 135.344C341.909 137.388 336.626 138.411 330.75 138.411L330.744 138.416Z" fill="black"/>
<path d="M368.002 137.269V70.2181H383.518V137.269H368.002ZM382.37 109.777V96.6534H415.127V109.777H382.37ZM413.979 137.269V70.2181H429.495V137.269H413.979Z" fill="black"/>
<path d="M128.52 189.5V164.045H138.264C140.104 164.045 141.633 164.335 142.851 164.915C144.077 165.486 144.993 166.27 145.598 167.264C146.211 168.258 146.518 169.385 146.518 170.645C146.518 171.68 146.319 172.567 145.921 173.305C145.523 174.034 144.989 174.626 144.318 175.082C143.646 175.538 142.896 175.865 142.068 176.064V176.313C142.971 176.362 143.837 176.64 144.666 177.145C145.502 177.642 146.186 178.347 146.716 179.258C147.247 180.17 147.512 181.272 147.512 182.565C147.512 183.882 147.193 185.067 146.555 186.119C145.917 187.163 144.956 187.988 143.671 188.593C142.387 189.198 140.771 189.5 138.824 189.5H128.52ZM133.131 185.647H138.09C139.764 185.647 140.97 185.328 141.707 184.69C142.453 184.044 142.826 183.215 142.826 182.204C142.826 181.45 142.64 180.771 142.267 180.166C141.894 179.552 141.363 179.072 140.676 178.724C139.988 178.368 139.168 178.189 138.215 178.189H133.131V185.647ZM133.131 174.871H137.693C138.488 174.871 139.205 174.726 139.843 174.436C140.481 174.137 140.982 173.719 141.347 173.18C141.72 172.633 141.906 171.987 141.906 171.241C141.906 170.255 141.558 169.443 140.862 168.805C140.174 168.167 139.151 167.848 137.792 167.848H133.131V174.871ZM154.121 196.66C153.508 196.66 152.94 196.61 152.418 196.51C151.905 196.419 151.495 196.311 151.188 196.187L152.232 192.682C152.887 192.873 153.471 192.964 153.985 192.956C154.498 192.947 154.95 192.786 155.339 192.471C155.737 192.164 156.073 191.65 156.346 190.93L156.731 189.898L149.808 170.409H154.581L158.981 184.827H159.18L163.593 170.409H168.378L160.734 191.812C160.377 192.823 159.905 193.689 159.317 194.41C158.728 195.139 158.008 195.694 157.154 196.075C156.309 196.465 155.298 196.66 154.121 196.66Z" fill="black"/>
<path d="M179.129 184.342V160.136L195.895 172.239" stroke="black" stroke-width="0.740188" stroke-miterlimit="10"/>
<path d="M178.759 184.342L200.5 200L222.241 184.342V153L178.759 184.342Z" fill="black"/>
<path d="M299.921 186.985C298.053 185.938 296.568 184.478 295.471 182.601C294.372 180.724 293.823 178.616 293.823 176.272C293.823 173.928 294.372 171.826 295.471 169.961C296.57 168.097 298.053 166.641 299.921 165.594C301.789 164.548 303.844 164.026 306.087 164.026C308.329 164.026 310.385 164.55 312.253 165.594C314.121 166.641 315.593 168.097 316.67 169.961C317.745 171.826 318.285 173.93 318.285 176.272C318.285 178.614 317.74 180.724 316.654 182.601C315.568 184.478 314.095 185.938 312.237 186.985C310.38 188.031 308.329 188.553 306.089 188.553C303.849 188.553 301.791 188.031 299.923 186.985H299.921ZM310.656 181.321C311.799 180.048 312.372 178.365 312.372 176.272C312.372 174.179 311.799 172.467 310.656 171.205C309.512 169.943 307.988 169.311 306.087 169.311C304.186 169.311 302.626 169.936 301.483 171.188C300.339 172.439 299.767 174.133 299.767 176.27C299.767 178.407 300.337 180.074 301.483 181.337C302.626 182.599 304.161 183.231 306.087 183.231C308.012 183.231 309.512 182.594 310.656 181.321Z" fill="black"/>
<path d="M331.335 176.563L339.217 188.553H332.456L327.598 181.145L323.318 188.553H316.727L324.371 176.252L316.557 164.365H323.318L328.107 171.67" fill="black"/>
<path d="M293.821 164.365H278.295V169.04H293.821V164.365Z" fill="black"/>
<path d="M278.295 188.315V174.152L291.376 174.088V178.624H284.106V188.315H278.295Z" fill="black"/>
<path d="M332.313 164.79H337.996L331.513 174.631L328.678 170.337L332.313 164.79Z" fill="black" stroke="black" stroke-width="0.894394" stroke-miterlimit="10"/>
<path d="M236.128 187.742C234.747 187.174 233.643 186.332 232.815 185.218C231.986 184.103 231.553 182.761 231.506 181.193H237.69C237.78 182.081 238.086 182.757 238.606 183.222C239.126 183.689 239.807 183.92 240.644 183.92C241.481 183.92 242.184 183.722 242.682 183.323C243.18 182.927 243.429 182.374 243.429 181.669C243.429 181.078 243.23 180.589 242.834 180.202C242.437 179.816 241.95 179.497 241.373 179.246C240.796 178.997 239.974 178.712 238.91 178.393C237.37 177.915 236.113 177.437 235.139 176.961C234.165 176.483 233.326 175.778 232.625 174.846C231.923 173.914 231.572 172.696 231.572 171.196C231.572 168.967 232.376 167.222 233.985 165.96C235.593 164.697 237.688 164.067 240.27 164.067C242.851 164.067 245.015 164.697 246.623 165.96C248.231 167.222 249.09 168.98 249.205 171.231H242.92C242.873 170.458 242.591 169.85 242.069 169.407C241.547 168.964 240.88 168.742 240.065 168.742C239.362 168.742 238.796 168.929 238.366 169.306C237.937 169.68 237.721 170.222 237.721 170.927C237.721 171.701 238.082 172.304 238.809 172.736C239.534 173.168 240.666 173.635 242.206 174.135C243.746 174.659 244.997 175.159 245.96 175.635C246.922 176.113 247.755 176.807 248.458 177.717C249.161 178.627 249.511 179.799 249.511 181.23C249.511 182.662 249.165 183.834 248.476 184.949C247.784 186.064 246.781 186.951 245.468 187.61C244.156 188.269 242.602 188.599 240.814 188.599C239.025 188.599 237.507 188.315 236.126 187.747L236.128 187.742Z" fill="black"/>
<path d="M268.787 164.406V169.081H262.466V180.243H256.657V169.081H250.337V164.406H268.784H268.787Z" fill="black"/>
<path d="M257.928 183.792H261.197C261.651 183.792 262.019 184.16 262.019 184.616V187.619C262.019 188.075 261.651 188.442 261.197 188.442H257.928C257.474 188.442 257.107 188.075 257.107 187.619V184.616C257.107 184.16 257.474 183.792 257.928 183.792Z" stroke="black" stroke-width="0.894394" stroke-linecap="round" stroke-linejoin="round"/>
</svg>
