<svg xmlns="http://www.w3.org/2000/svg" width="25" height="24" viewBox="0 0 25 24" fill="none">
  <g clip-path="url(#clip0_256_3715)">
    <path d="M22.5176 3.67919L13.1426 0.0474609C12.9792 -0.0158203 12.7981 -0.0158203 12.6347 0.0474609L3.25966 3.67919C2.989 3.78405 2.81055 4.04454 2.81055 4.33484V6.11679C2.81055 12.9712 6.0842 19.62 12.4996 23.8826C12.7352 24.039 13.0417 24.0393 13.2778 23.8826C19.6367 19.6574 22.9668 13.0368 22.9668 6.11674V4.33484C22.9668 4.04454 22.7883 3.78405 22.5176 3.67919ZM21.5605 6.11674C21.5605 12.3998 18.6174 18.4672 12.8887 22.4468C7.15455 18.4637 4.2168 12.3952 4.2168 6.11674V4.81648L12.8887 1.45713L21.5605 4.81648V6.11674Z" fill="url(#paint0_linear_256_3715)"/>
    <path d="M20.1739 5.28466L13.1426 2.56089C12.9792 2.49761 12.7981 2.49761 12.6347 2.56085L5.60345 5.28461C5.33275 5.38952 5.1543 5.65 5.1543 5.9403C5.1543 12.1635 7.9908 17.5301 12.4586 20.9839C12.712 21.1798 13.0656 21.1796 13.3187 20.9839C17.7825 17.5333 20.623 12.1713 20.623 5.9403C20.623 5.65 20.4446 5.38952 20.1739 5.28466ZM12.8887 19.5277C8.81547 16.1638 6.64994 11.3146 6.56327 6.42091L12.8887 3.97057L19.2141 6.42091C19.1274 11.3148 16.9616 16.164 12.8887 19.5277Z" fill="url(#paint1_linear_256_3715)"/>
    <path d="M16.1984 9.43422C15.9238 9.15958 15.4786 9.15967 15.204 9.43422L11.9196 12.7186L10.5734 11.3725C10.2988 11.0979 9.85359 11.0979 9.57899 11.3725C9.3044 11.647 9.3044 12.0922 9.57899 12.3668L11.4224 14.2102C11.697 14.4848 12.1422 14.4848 12.4168 14.2102L16.1984 10.4286C16.4729 10.1541 16.4729 9.70886 16.1984 9.43422Z" fill="url(#paint2_linear_256_3715)"/>
  </g>
  <defs>
    <linearGradient id="paint0_linear_256_3715" x1="2.81055" y1="0" x2="26.4496" y2="19.8531" gradientUnits="userSpaceOnUse">
      <stop stop-color="#3593AE"/>
      <stop offset="1" stop-color="#02495E"/>
    </linearGradient>
    <linearGradient id="paint1_linear_256_3715" x1="5.1543" y1="2.51343" x2="23.4566" y2="17.7204" gradientUnits="userSpaceOnUse">
      <stop stop-color="#3593AE"/>
      <stop offset="1" stop-color="#02495E"/>
    </linearGradient>
    <linearGradient id="paint2_linear_256_3715" x1="9.37305" y1="9.22827" x2="14.33" y2="15.9466" gradientUnits="userSpaceOnUse">
      <stop stop-color="#3593AE"/>
      <stop offset="1" stop-color="#02495E"/>
    </linearGradient>
    <clipPath id="clip0_256_3715">
      <rect width="24" height="24" fill="white" transform="translate(0.888672)"/>
    </clipPath>
  </defs>
</svg>