<?xml version="1.0" encoding="UTF-8"?>
<svg id="Layer_1" data-name="Layer 1" xmlns="http://www.w3.org/2000/svg" viewBox="0 0 645.96 522.88">
  <defs>
    <style>
      .cls-1 {
        fill: #fff;
        stroke-width: 0px;
      }
    </style>
  </defs>
  <path class="cls-1" d="M164,247.23v-9.16c4,0,7.74,0,11.47,0,1.55,0,3.1.06,4.64-.02,1.1-.06,1.44.38,1.34,1.39-.04.35,0,.7,0,1.05,0,26.48-.01,52.95.03,79.43,0,1.36-.29,1.8-1.72,1.78-5.14-.09-10.28-.04-15.71-.04v-9.51c-.78.54-1.2.75-1.51,1.07-5.86,6.05-13.12,9.09-21.38,9.85-14.28,1.31-26.23-3.45-35.71-14.19-3.95-4.47-6.73-9.72-8.31-15.45-2.12-7.66-2.48-15.4-.84-23.28,1.88-8.99,5.98-16.67,12.65-22.89,5.58-5.2,12.2-8.5,19.73-9.92,7.32-1.38,14.56-1.05,21.59,1.38,4.33,1.5,8.26,3.8,11.47,7.18.53.56,1.16,1.03,1.75,1.54l.52-.2ZM139.38,254.6c-5.38-.07-10.27,1.4-14.59,4.55-5.73,4.18-8.68,10-9.61,16.92-.77,5.78.02,11.33,2.68,16.54,6.85,13.39,24.07,15.82,34.85,8.82,5.29-3.43,8.37-8.41,9.72-14.5,1.57-7.05,1.08-13.95-2.33-20.35-4.38-8.21-11.61-11.82-20.73-11.98Z"/>
  <path class="cls-1" d="M570.82,247.51v-9.36c.65-.04,1.08-.08,1.51-.08,4.8,0,9.59.04,14.39-.03,1.24-.02,1.62.33,1.61,1.59-.03,26.88-.03,53.76-.02,80.64,0,.72.12,1.4-1,1.4-5.39-.03-10.77-.01-16.45-.01v-9.44c-.69.43-1.06.58-1.31.84-5.81,6.23-13.16,9.21-21.46,10-13.91,1.33-25.7-3.16-35.12-13.49-5.17-5.68-8.26-12.44-9.81-19.99-1.4-6.85-1.3-13.65.19-20.41,1.59-7.21,4.85-13.63,9.83-19.17,5.17-5.76,11.47-9.71,18.84-11.87,6.95-2.03,14.06-2.2,21.1-.6,6.33,1.44,11.98,4.34,16.42,9.26.21.24.58.33,1.29.72ZM546.23,254.62c-5.89-.03-11.26,1.62-15.73,5.49-7.39,6.42-9.54,14.76-8.32,24.18.79,6.06,3.39,11.22,8.05,15.23,5.33,4.58,11.66,6.18,18.52,5.61,6.54-.55,12.17-3.23,16.14-8.57,5.98-8.04,6.71-17.09,3.66-26.3-3.38-10.19-11.6-15.64-22.32-15.63Z"/>
  <path class="cls-1" d="M408.79,323.48h-9.01c-9.55-1.03-18.16-4.22-25.37-10.79-5.57-5.08-9.31-11.24-11.51-18.39-1.73-5.62-2.38-11.4-1.98-17.25.84-12.07,5.26-22.56,14.5-30.63,6.76-5.9,14.76-9.08,23.72-9.87,6.89-.61,13.56.15,20.03,2.64,9.55,3.67,16.31,10.3,20.45,19.59,2.55,5.72,3.81,11.76,3.9,18.03.03,2.03-.07,4.06.03,6.08.06,1.25-.43,1.48-1.57,1.48-20.13-.03-40.27-.02-60.4-.02-.69,0-1.37,0-2.54,0,.66,2.42,1.07,4.65,1.87,6.72,2.9,7.42,8.29,12.29,15.89,14.51,4.88,1.42,9.87,1.4,14.88.35,5.67-1.19,10.41-4.03,14.51-7.97,1.56-1.5,2.83-3.3,4.32-5.07,1.77,1.38,3.57,2.76,5.35,4.16,2.26,1.79,4.48,3.63,6.76,5.39.61.47.75.77.26,1.43-4.94,6.59-10.87,11.96-18.42,15.46-4.99,2.32-10.23,3.62-15.68,4.15ZM424.68,270.06c.05-.27.1-.42.1-.57,0-.2,0-.4-.05-.59-1.25-4.69-3.44-8.81-7.33-11.86-4.63-3.63-9.97-4.74-15.74-4.4-9.17.54-15.76,5.04-20.07,13.02-.71,1.31-1.08,2.8-1.68,4.4h44.77Z"/>
  <path class="cls-1" d="M300.95,247.14c0,2.5-.04,5,.01,7.49.02,1.07-.24,1.34-1.39,1.18-4.84-.68-9.71-1.19-14.59-.48-8.38,1.21-15.12,5.01-18.93,12.85-2.36,4.86-2.95,10.07-2.27,15.49.52,4.12,1.74,7.88,4.14,11.26,3.53,4.97,8.46,7.75,14.31,9.05,4.58,1.02,9.2.84,13.82.39,1.19-.12,2.38-.17,3.56-.31.96-.12,1.36.17,1.35,1.2-.04,5.1-.03,10.19-.01,15.29,0,1.07-.5,1.57-1.52,1.61-5.67.22-11.39.99-17.01.53-15.59-1.28-29.37-9.84-35.67-26.02-2.16-5.55-3.08-11.41-2.96-17.34.21-9.59,2.76-18.51,8.65-26.23,4.36-5.71,9.98-9.88,16.63-12.64,6.86-2.84,14.06-3.77,21.42-3.47,3.17.13,6.32.69,9.48,1,1.07.1.96.83.97,1.51.02,2.55,0,5.1,0,7.64Z"/>
  <path class="cls-1" d="M321.94,255.9c-2.94,0-5.67-.07-8.41.03-1.35.05-1.66-.39-1.64-1.69.08-4.8.03-9.59.03-14.39,0-.54,0-1.08,0-1.78h9.9c.03-.64.08-1.12.08-1.61,0-6.3.04-12.59-.03-18.89-.02-1.29.29-1.88,1.58-2.3,5.67-1.84,11.29-3.82,16.93-5.74.28-.09.57-.12,1.08-.23v28.76c2.79,0,5.37,0,7.94,0q2.47,0,2.47,2.42c0,4.6-.05,9.2.03,13.79.02,1.31-.5,1.64-1.65,1.63-2.84-.03-5.67-.01-8.67-.01,0,.62,0,1.11,0,1.59,0,15.44,0,30.88,0,46.32,0,5.5-.05,10.99-.06,16.49,0,.75.04,1.38-1.03,1.37-6.14-.03-12.28-.01-18.53-.01v-65.76Z"/>
  <path class="cls-1" d="M220,321.65c-6.47,0-12.66.01-18.84-.04-.29,0-.73-.52-.84-.88-.14-.45-.03-.99-.03-1.49,0-17.78-.07-35.56.05-53.34.03-4.94.65-9.86,2.76-14.47,2.69-5.89,7.09-9.73,13.26-11.68,3.84-1.22,7.74-1.7,11.73-1.68,2.9.01,5.79.03,8.69-.01.93-.01,1.36.23,1.35,1.25-.04,5.14-.05,10.29,0,15.43.01,1.16-.66,1.15-1.44,1.16-2.95.01-5.89-.05-8.84.04-3.68.11-6.19,1.81-7.19,5.14-.52,1.73-.65,3.62-.65,5.44-.04,17.78-.03,35.56-.03,53.34,0,.54,0,1.07,0,1.79Z"/>
  <path class="cls-1" d="M478.31,321.58c-.39.04-.63.08-.87.08-5.79,0-11.59-.02-17.38.02-1.03,0-1.38-.28-1.38-1.35.03-18.83-.1-37.66.09-56.48.06-6.13,1.47-12.11,5.46-17.09,3.18-3.97,7.36-6.31,12.28-7.56,6.2-1.58,12.48-.95,18.74-1.13.97-.03,1.32.3,1.31,1.29-.03,5.09-.05,10.19,0,15.28.01,1.2-.6,1.28-1.48,1.27-2.9,0-5.8-.13-8.69.05-3.27.19-6.2,1.24-7.28,4.78-.47,1.54-.78,3.2-.79,4.81-.05,18.28-.03,36.56-.03,54.84v1.21Z"/>
  <path class="cls-1" d="M60.14,201.42c1-1.4,2.35-2.03,4.09-2.03,19.64.01,39.27,0,58.91,0,2.78,0,5.64,2.68,5.78,5.46.08,1.55-.01,3.1.03,4.65.03,1.06-.42,1.45-1.47,1.62-3.78.61-7.62,1.04-11.29,2.07-5.37,1.51-10.51,3.68-15.32,6.61-4.57,2.78-8.71,6.08-12.61,9.7-.28-.4-.5-.85-.84-1.19-8.82-8.88-17.64-17.75-26.48-26.6-.18-.18-.52-.21-.79-.3Z"/>
  <path class="cls-1" d="M60.14,201.42c.27.1.61.12.79.3,8.84,8.86,17.66,17.72,26.48,26.6.34.34.56.79.84,1.19-2.79,3.54-5.76,6.97-8.34,10.66-3.68,5.25-6.08,11.16-7.73,17.32-.94,3.54-1.38,7.22-1.96,10.85-.15.95-.44,1.45-1.47,1.4-1.79-.09-3.62.11-5.36-.22-3.11-.59-4.85-2.85-5.01-6-.03-.65-.01-1.3-.01-1.95,0-18.48,0-36.96-.01-55.44,0-1.83.47-3.41,1.78-4.71ZM59.14,206.02c-.05-.02-.1-.04-.15-.06v57.13c.05,0,.1,0,.15,0v-57.07Z"/>
  <path class="cls-1" d="M59.14,206.02v57.07c-.05,0-.1,0-.15,0v-57.13c.05.02.1.04.15.06Z"/>
</svg>