<?xml version="1.0" encoding="UTF-8"?>
<svg id="Layer_3" data-name="Layer 3" xmlns="http://www.w3.org/2000/svg" viewBox="0 0 634.67 514.11">
  <defs>
    <style>
      .cls-1 {
        fill: #fff;
        stroke-width: 0px;
      }
    </style>
  </defs>
  <path class="cls-1" d="M317.86,149.25c1.69.13,3.38.33,5.08.36,16.07.34,30.94,5.03,45.1,12.32,11.61,5.98,21.65,14,30.32,23.74,12.69,14.26,21.24,30.65,25.23,49.37,1.26,5.93,2.1,11.9,2.35,17.96.65,16.01-1.9,31.47-7.92,46.34-5.42,13.4-13.46,25.08-23.53,35.39-10.9,11.15-23.64,19.5-38.21,25.05-7.69,2.93-15.6,5.03-23.77,6.1-8.29,1.09-16.61,1.29-24.95.61-13.41-1.08-26.11-4.72-38.13-10.69-20.98-10.41-36.93-26.09-48.1-46.62-4.76-8.75-8.1-18.06-10.2-27.81-1.54-7.16-2.43-14.39-2.5-21.72-.19-19.94,4.48-38.61,14.53-55.87,7.56-12.99,17.33-24.06,29.4-33.03,12.03-8.94,25.36-15.15,39.98-18.58,7.32-1.72,14.74-2.67,22.26-2.76.31,0,.62-.11.93-.17.71,0,1.42,0,2.13,0ZM225.15,236.94s.09,0,.13,0c0,.4-.01.8,0,1.21.17,5.37.28,10.74.54,16.11.32,6.6,1.3,13.12,2.62,19.58,3.31,16.2,8.82,31.63,16.54,46.27,3.2,6.07,7.2,11.31,12.88,15.38,8.44,6.05,17.46,10.75,27.52,13.37,9.08,2.37,18.35,3.24,27.7,3.44,8.47.18,16.92-.11,25.33-1.24,5.65-.76,11.22-1.92,16.64-3.71,7.83-2.58,14.91-6.61,21.66-11.29,5.1-3.53,9.2-7.91,12.24-13.31,5.04-8.98,9.13-18.37,12.42-28.11,3.08-9.13,5.45-18.44,6.78-27.99.73-5.22,1.32-10.47,1.65-15.72.3-4.85.17-9.72.22-14.58,0-.51,0-1.02,0-1.53.9,2.64,1.64,5.26,2.33,7.9,1.63,6.29,5.58,10.89,10.63,14.69,1.17-3.34-1.73-22.12-5.01-32.03-7.66-23.2-21.72-41.52-41.88-55.29-37.99-25.95-91.98-23.96-128.37,8.32-18.68,16.57-30.34,37.09-34.74,61.69-.91,5.1-1.38,10.25-1.3,15.45.32-.18.51-.39.65-.62,1.37-2.23,3.18-4.05,5.35-5.5,2.75-1.84,4.64-4.32,5.73-7.43.59-1.68,1.16-3.37,1.74-5.06Z"/>
  <path class="cls-1" d="M246.33,233.39c.32-5.59.57-11.18.99-16.75.31-4.02,1.23-7.93,2.5-11.76,1.35-4.08,3.86-7.21,7.58-9.4,5.75-3.38,12.02-5.35,18.44-6.95,5.97-1.49,12.04-2.35,18.13-3.14,5.76-.75,11.54-.94,17.33-.99,3.15-.03,6.31-.17,9.46-.08,6.11.18,12.25.14,18.31.81,10.35,1.15,20.66,2.7,30.53,6.29,3.67,1.34,7.19,2.96,10.43,5.18,3.03,2.07,4.72,5.02,5.81,8.41,1.84,5.73,2.94,11.59,2.98,17.62.02,2.99.03,5.98,0,8.97-.06,4.57,0,9.14-.3,13.69-.3,4.39-.89,8.76-1.55,13.12-.92,6.07-1.9,12.13-3.05,18.16-2.8,14.61-6.6,28.95-11.76,42.92-1.43,3.88-3.96,6.58-7.39,8.7-6.18,3.83-12.85,6.31-19.95,7.72-5.69,1.13-11.42,1.97-17.21,2.14-5.88.17-11.78.31-17.66.13-9.61-.3-19.1-1.58-28.24-4.76-4.52-1.58-8.75-3.74-12.69-6.46-2.37-1.63-4.04-3.79-5.07-6.52-5.34-14.15-9.4-28.66-12.13-43.52-1.63-8.85-3.02-17.75-4.19-26.67-.66-5.03-.66-10.14-.95-15.21-.03-.54,0-1.09,0-1.64-.12,0-.23-.01-.35-.02ZM325.26,266.91c.32-.05.44-.09.57-.09,3.99,0,7.99,0,11.98-.02.55,0,.73.23.77.73.22,2.5.57,5,.66,7.5.26,7.05.42,14.1.58,21.14.02.73.24.94.95.93,2.83-.03,5.67-.01,8.5-.01,1.4,0,1.44,0,1.44-1.44-.02-7.89.05-15.78-.13-23.66-.2-8.8-1.02-17.55-2.73-26.19-1.44-7.27-3.66-14.27-7.18-20.83-.57-1.07-1.31-1.5-2.53-1.49-5.28.05-10.56.02-15.85.02-2.77,0-5.54.01-8.31,0-.69,0-1.03.18-1.01.99.09,2.96.1,5.92.14,8.89.21,14.78.42,29.56.62,44.33.09,6.12.17,12.24.23,18.35,0,.78.24,1.07,1.05,1.06,3.09-.04,6.18-.03,9.28,0,.64,0,.98-.16.91-.86-.04-.38.02-.77.02-1.16.01-8.21.02-16.43.04-24.64,0-1.15,0-2.31,0-3.52ZM288.53,223.65c-.52-.06-.84-.13-1.16-.13-8.11.03-16.23.08-24.34.1-.77,0-1,.27-.97,1.02.29,7.88.56,15.76.82,23.65.39,11.97.77,23.94,1.15,35.91.13,3.99.26,7.98.36,11.97.02.71.27.93.97.92,3.28-.03,6.57-.01,9.85-.02.28,0,.56-.05.9-.09,0-.37,0-.65,0-.94-.08-9.5-.15-19-.25-28.49,0-.78.23-.98.98-.97,2.48.04,4.96.02,7.44.02h.97c.1-.17.16-.23.16-.28,0-2.93,0-5.85,0-8.78,0-.63-.45-.6-.88-.6-2.48,0-4.96,0-7.44,0-.37,0-.74-.04-1.07-.06v-23.7c.59,0,.97,0,1.35,0,3.41,0,6.83-.02,10.24.02.76,0,1.02-.22.99-.98-.07-1.7-.08-3.41-.1-5.12-.01-1.12,0-2.24,0-3.44ZM358.31,232.89c.02.49.05.87.05,1.25-.02,12.17-.04,24.35-.06,36.52,0,.16,0,.32,0,.48-.04,8.31-.07,16.62-.13,24.92,0,.8.23,1.05,1.04,1.04,3.16-.04,6.31-.05,9.47,0,.92.02,1.22-.27,1.25-1.18.59-16.12,1.21-32.23,1.82-48.35.17-4.54.37-9.07.54-13.61.03-.82.27-1.18,1.19-1.15,2.41.07,4.83,0,7.25.04.69,0,.97-.17.95-.91-.05-2.48-.06-4.96-.04-7.44,0-.74-.29-.92-.97-.92-10.21.02-20.42.02-30.63,0-.7,0-1,.21-.99.92.04,2.54.06,5.08.06,7.62,0,.66.34.8.91.79,1.13-.03,2.25,0,3.38,0,1.6,0,3.21,0,4.9,0ZM306.72,223.66h-13.65c-.02.36-.05.65-.05.93.1,5.89.2,11.78.32,17.67.22,11.04.45,22.07.67,33.11.14,6.85.28,13.71.39,20.56.01.83.22,1.18,1.15,1.17,3.32-.06,6.63-.05,9.95,0,.81,0,1.02-.26,1.03-1.05.02-10.72.09-21.44.12-32.16.04-12.59.05-25.18.07-37.77,0-.8,0-1.6,0-2.46Z"/>
  <path class="cls-1" d="M407.19,242.7c-.29,5.27-.39,10.59-.91,15.86-1,10.16-3.03,20.14-5.97,29.93-2.79,9.3-6.36,18.28-10.65,26.99-1.56,3.16-3.57,5.89-6.95,7.32-2.9,1.23-3.75.67-3.95-2.48-.27-4.26.8-8.29,2.01-12.31,3.25-10.81,5.94-21.76,8.05-32.86,1.61-8.44,3.04-16.91,3.78-25.46.55-6.37.81-12.78,1.05-19.17.24-6.38-.12-12.73-1.16-19.04-.71-4.27-1.83-8.42-3.57-12.39-1.45-3.33-4.13-5.52-7.14-7.38-6.35-3.93-13.35-6.16-20.54-7.88-7.11-1.71-14.32-2.85-21.59-3.48-4.87-.42-9.76-.64-14.64-.82-3.96-.14-7.92-.14-11.88-.11-12.74.08-25.36,1.37-37.8,4.22-6.1,1.39-12.1,3.11-17.68,5.99-2.58,1.33-5.06,2.97-7.34,4.77-3.21,2.53-4.44,6.31-5.52,10.08-1.45,5.09-2.4,10.29-2.5,15.58-.14,7.11-.24,14.23.05,21.33.39,9.36,1.93,18.6,3.49,27.83,1.53,9.04,3.38,18.01,5.72,26.87,1.37,5.19,2.88,10.34,4.32,15.52.94,3.38,1.37,6.8.72,10.3-.23,1.24-.52,1.55-1.78,1.47-2.02-.13-3.5-1.35-4.98-2.55-2.51-2.04-3.85-4.87-5.2-7.69-5.39-11.21-9.54-22.86-12.21-35-1.28-5.83-2.19-11.75-3.04-17.66-1.06-7.37-1.35-14.81-1.15-22.25.3-11.02,2.16-21.76,6.44-31.97,3.37-8.05,8.87-14.38,16.21-19.05,9.91-6.31,20.53-11.1,31.8-14.42,6.74-1.98,13.59-3.42,20.55-4.32,5.28-.68,10.59-.73,15.9-.52,3.15.12,6.33-.04,9.46.27,4.28.42,8.56,1.01,12.78,1.81,15.22,2.88,29.3,8.72,42.5,16.75,8.71,5.29,14.58,12.89,18.04,22.42,2.07,5.7,3.64,11.56,4.32,17.57.6,5.26.65,10.59.95,15.94Z"/>
  <path class="cls-1" d="M271.58,337.15c.46-.03.94-.15,1.37-.06,5.38,1.11,10.75,2.24,16.13,3.38,5.58,1.19,11.21,1.93,16.9,2.27,3.76.22,7.52.5,11.28.48,12.62-.05,25.1-1.29,37.33-4.6,2.54-.69,5.16-1.05,7.76-1.49.45-.08.96.17,1.44.26-.19.46-.28.99-.58,1.37-1.79,2.23-4.09,3.79-6.71,4.9-4.2,1.79-8.61,2.8-13.06,3.67-5.99,1.17-12.03,1.66-18.13,1.63-5.67-.03-11.33.14-17,.08-9.32-.11-18.42-1.72-27.3-4.52-3.49-1.1-6.35-3.22-8.83-5.87-.31-.33-.5-.78-.75-1.18.05-.11.1-.21.15-.32Z"/>
  <path class="cls-1" d="M324.98,257.36v-24.62c2.11,0,4.17-.02,6.22.03.24,0,.55.4.69.68,1.63,3.17,2.83,6.51,3.55,9.98.92,4.44,1.62,8.92,2.41,13.39.03.15,0,.31,0,.54h-12.87Z"/>
</svg>