<?xml version="1.0" encoding="UTF-8"?>
<svg id="Layer_2" data-name="Layer 2" xmlns="http://www.w3.org/2000/svg" viewBox="0 0 736 522.88">
  <defs>
    <style>
      .cls-1 {
        fill: #fff;
        stroke-width: 0px;
      }
    </style>
  </defs>
  <path class="cls-1" d="M27.48,192.16c1.35.08,2.7.23,4.05.23,30.06.01,60.12.04,90.19-.05,2.69,0,3.56.72,3.43,3.45-.22,4.84-.14,9.69-.02,14.53.06,2.43-.79,3.06-3.25,3.04-21.33-.13-42.67-.11-64-.08-3.82,0-4.38.65-4.39,4.43-.01,7.27.09,14.54-.05,21.8-.05,2.71.94,3.51,3.57,3.5,19.78-.08,39.57,0,59.35-.12,2.87-.02,3.68.81,3.57,3.62-.21,5.22-.18,10.47,0,15.7.08,2.48-.77,3.12-3.17,3.11-19.78-.09-39.57-.05-59.35-.06-3.78,0-3.9.13-3.9,3.93,0,9.3,0,18.61,0,27.91,0,3.62.35,3.99,4.01,3.99,21.92,0,43.83,0,65.75,0,3.77,0,4.04.34,3.98,4.2-.07,4.65-.26,9.32.04,13.95.19,2.92-.72,3.69-3.51,3.68-18.23-.09-36.46-.05-54.69-.05-12.61,0-25.21,0-37.82,0-1.26,0-2.51.11-3.77.17v-130.89Z"/>
  <path class="cls-1" d="M391.87,375.41c-.23-2.2-.61-4.39-.65-6.59-.1-5.51.05-11.03-.08-16.53-.05-2.11.6-3.07,2.75-3,2.42.08,4.84.06,7.26.08,3.27.03,5.66,1.51,6.63,4.63.96,3.1.93,6.31-1.97,8.44-2,1.47-1.48,2.3-.38,4.1,1.67,2.74,2.64,5.9,3.91,8.88h-4.07c-1.71-2.79-3.3-5.66-5.2-8.32-.72-1.01-2.15-1.52-3.26-2.26-.45,1.14-1.11,2.25-1.3,3.43-.38,2.36-.5,4.76-.72,7.15h-2.91ZM398.23,360.26c2.84-.16,5.18.04,5.17-3.17,0-2.44-1.12-3.1-4.75-3.17-2.39-.05-3.26.96-3.25,3.29.01,2.54,1.33,3.2,2.83,3.04Z"/>
  <path class="cls-1" d="M562.43,375.41c-1.59-2.21-3.71-4.21-4.67-6.66-1.92-4.92-1.85-10.09.77-14.83,2.06-3.73,5.4-5.35,9.75-4.74,3.99.56,6.34,2.94,7.67,6.57,1.71,4.66,1.73,9.38-.33,13.84-1,2.17-2.94,3.89-4.46,5.82h-8.73ZM572.72,362.43c-.13-.03-.27-.05-.4-.08,0-.96.09-1.94-.02-2.89-.33-2.83-2.76-5.18-5.31-5.23-2.58-.05-5.12,2.15-5.41,4.99-.2,1.99-.03,4.03.02,6.05.07,2.91,2.09,4.27,4.46,5.01,2.44.76,4.2-.94,5.3-2.68.91-1.44.94-3.43,1.36-5.17Z"/>
  <path class="cls-1" d="M664.88,375.41c.02-7.75-.02-15.49.12-23.23.02-.98,1.11-2.83,1.44-2.77,1.25.21,2.93.75,3.48,1.72,2.21,3.91,4.07,8.02,6.71,12.13.21-1,.59-2.01.61-3.01.05-2.9-.19-5.82-.01-8.71.05-.8,1.18-1.54,1.82-2.3.75.79,2.15,1.57,2.16,2.37.12,7.94.01,15.87-.03,23.81h-4.07c-2.24-4.5-3.86-9.36-7.11-13.26-.35.11-.69.21-1.04.32v12.94h-4.07Z"/>
  <path class="cls-1" d="M646.84,375.41c-.54-.74-.93-1.72-1.66-2.18-5.11-3.28-4.73-17.79-.49-21.66,5.24-4.78,14.11-2.66,16.14,4.54,1.43,5.06,1.74,10.58-1.6,15.36-1.02,1.46-2.43,2.64-3.67,3.95h-8.73ZM645.12,361.94c.19.12.38.23.56.35.18,1.23.15,2.55.57,3.69.89,2.38,2.58,4.69,5.17,4.3,1.81-.27,4.26-2.06,4.79-3.7.84-2.58.78-5.71.24-8.43-.82-4.07-5.49-5.39-8.29-2.36-1.49,1.61-2.06,4.08-3.05,6.16Z"/>
  <path class="cls-1" d="M417.49,375.41c-.82-.81-1.88-1.48-2.43-2.44-1.3-2.28-3.18-4.64-3.34-7.06-.25-3.83.06-7.96,1.32-11.55,1.57-4.46,5.78-5.97,10.74-5.06,3.4.63,6.58,4.3,7.24,8.13.86,4.97.98,9.82-1.99,14.2-.94,1.39-2.25,2.52-3.39,3.78h-8.15ZM415.76,362.11c.09,1.06.1,2.12.28,3.16.48,2.74,2.04,4.73,4.82,5.08,2.78.34,4.35-1.56,5.48-3.89,1.57-3.25,1.13-6.43-.4-9.47-1.46-2.9-4.67-3.55-7.39-1.78-2.56,1.66-2.8,4.21-2.79,6.9Z"/>
  <path class="cls-1" d="M536.82,375.41c-.04-7.73-.12-15.46-.05-23.19,0-.94.83-2.66,1.28-2.66,1.14,0,2.81.44,3.33,1.28,1.76,2.86,3.1,5.98,4.63,8.98.73,1.43,1.55,2.81,2.32,4.21.26-.02.51-.04.77-.06.15-.92.43-1.84.44-2.77,0-3.28-.21-6.58-.04-9.85.04-.75,1.31-1.43,2.01-2.14.61.71,1.74,1.42,1.74,2.14.05,8.02-.06,16.03-.14,24.05h-4.66c-2.12-4.71-4.24-9.42-6.36-14.13-.4.08-.81.16-1.21.24v13.9h-4.07Z"/>
  <path class="cls-1" d="M515.86,375.41c-.04-7.73-.12-15.46-.05-23.19,0-.94.83-2.66,1.28-2.66,1.14,0,2.81.44,3.33,1.28,1.76,2.86,3.1,5.98,4.63,8.98.73,1.43,1.55,2.81,2.32,4.21.26-.02.51-.04.77-.06.15-.92.43-1.84.44-2.77,0-3.28-.21-6.58-.04-9.85.04-.75,1.31-1.43,2.01-2.14.61.71,1.74,1.42,1.74,2.14.05,8.02-.06,16.03-.14,24.05h-4.66c-2.12-4.71-4.24-9.42-6.36-14.13-.4.08-.81.16-1.21.24v13.9h-4.07Z"/>
  <path class="cls-1" d="M461.15,375.41c-1.59-1.98-3.44-3.8-4.72-5.97-2.5-4.21-1.49-13.42,1.57-17.12,3.59-4.34,12.72-4.93,15.47,1.38.39.89.24,2.77-.36,3.17-1.15.78-2.58,1.25-4.06-.44-1.1-1.26-3.24-2.41-4.78-2.25-1.43.15-3.15,1.85-3.88,3.31-1.66,3.29-1.22,6.84.32,10.12,1.54,3.29,6.24,4.14,8.55,1.61.52-.57.89-1.58.78-2.29-.08-.49-1.1-1.15-1.72-1.18-1.8-.08-2.85-.86-2.75-2.62.12-2.06,1.75-1.89,3.26-1.87,6.03.1,5.54-1.13,5.71,5.81.08,3.21-.3,5.76-3.72,6.96-.42.15-.63.9-.94,1.37h-8.73Z"/>
  <path class="cls-1" d="M478.03,375.41c.02-7.75.05-15.51.04-23.26,0-1.58-.02-2.97,2.17-2.91,1.96.05,2.83.89,2.59,2.9-.13,1.05-.04,2.13-.04,3.2,0,4.11.15,4.09,4.27,4.27,2.82.12,3.95-.93,3.71-3.69-.11-1.35.07-2.72-.07-4.07-.2-2.01.9-2.53,2.6-2.6,1.92-.08,2.18,1.04,2.18,2.61-.03,7.85.01,15.7.02,23.55h-4.66c-.03-2.81-.12-5.62-.06-8.43.06-2.93-1.69-3.16-4.01-3.17-2.32,0-4.07.24-4.01,3.17.06,2.81-.04,5.62-.07,8.43h-4.66Z"/>
  <path class="cls-1" d="M369.75,375.41c.05-7.75.12-15.49.15-23.24,0-1.51-.17-3,2.1-2.93,2.01.06,2.76.98,2.54,2.95-.13,1.15-.04,2.32-.04,3.48.02,3.69.23,3.89,4.01,3.88,3.72,0,3.92-.2,3.94-3.96,0-1.26.08-2.53-.04-3.77-.2-2.02.94-2.5,2.62-2.57,1.93-.08,2.16,1.08,2.15,2.63-.02,7.84.01,15.69.03,23.53h-4.66c-.03-2.81-.12-5.62-.06-8.43.06-2.93-1.69-3.16-4.01-3.17-2.32,0-4.07.24-4.01,3.17.06,2.81-.04,5.62-.07,8.43h-4.66Z"/>
  <path class="cls-1" d="M308.63,375.41c-1.26-1.99-2.65-3.9-3.69-6-.32-.64.29-2.51.6-2.54,1.07-.1,2.3.16,3.26.68.68.37.86,1.76,1.52,2.01,1.33.51,2.94.95,4.24.64.9-.22,2.27-2.04,2.05-2.63-.44-1.15-1.71-2.13-2.86-2.84-2.17-1.35-4.73-2.18-6.69-3.76-2.25-1.81-2.38-4.58-1.46-7.23,1-2.87,3.22-4.21,6.17-4.55,4.11-.47,6.51.53,8.2,3.96.47.97,0,2.39-.02,3.6-1.32-.3-2.68-.46-3.93-.94-1.33-.5-2.5-1.59-3.84-1.84-.67-.12-2.13.97-2.24,1.68-.12.72.8,1.9,1.57,2.41,1.11.72,2.48,1.06,3.77,1.49,6.52,2.15,8.19,9.34,3.3,14.23-.47.47-.81,1.08-1.21,1.62h-8.73Z"/>
  <path class="cls-1" d="M206.76,375.41c-1.23-1.9-2.63-3.71-3.61-5.73-.36-.74-.06-2.53.5-2.84,1.2-.67,2.88-1.04,3.6.95.94,2.57,2.89,3.42,5.29,2.65.94-.3,2.09-1.66,2.14-2.6.05-.93-.97-2.23-1.87-2.81-1.26-.81-2.82-1.31-4.32-1.6-3.67-.72-5.34-5.25-4.92-8.2.59-4.13,2.56-5.77,7.45-6.08,3.88-.25,6.8,1.63,7.72,5.17.17.66-.33,2.16-.57,2.17-1.22.06-2.52-.07-3.67-.47-1.54-.54-2.91-1.61-4.47-2.02-.54-.14-1.86.91-2,1.59-.13.64.66,1.77,1.34,2.21,1.2.77,2.59,1.47,3.98,1.7,6.7,1.12,8.49,11.14,3.15,14.56-.44.28-.68.89-1.01,1.35h-8.73Z"/>
  <path class="cls-1" d="M328.43,375.41c-1.36-1.92-2.92-3.73-3.97-5.81-.35-.7.59-2.05.94-3.1,1.04.48,2.5.7,3.02,1.51,1.23,1.91,2.56,3.41,4.88,2.42,1.18-.5,2.65-1.79,2.76-2.85.09-.85-1.51-2.2-2.64-2.78-2.69-1.38-5.96-1.58-7.71-4.69-2.21-3.91-.86-8.65,3.24-10.46,3.39-1.49,8.08-.34,10.03,2.84.64,1.05.24,2.74.32,4.13-1.38-.33-2.79-.55-4.12-1.02-1.28-.45-2.42-1.47-3.7-1.62-.66-.08-1.85,1.06-2.1,1.87-.17.56.68,1.74,1.36,2.19,1.03.67,2.31.95,3.5,1.37,7.15,2.52,8.72,8.83,3.62,14.49-.36.4-.47,1.01-.7,1.52h-8.73Z"/>
  <path class="cls-1" d="M285.93,375.41c.02-7.64.15-15.29,0-22.93-.05-2.64.84-3.38,3.35-3.23,3.28.19,6.58.07,9.87.01,1.46-.02,2.53.28,2.48,2.01-.05,1.57-.32,2.89-2.43,2.76-2.12-.12-4.26-.08-6.39-.05-1.69.02-2.76.73-2.74,2.62.02,1.86.8,2.94,2.76,2.94,1.65,0,3.35-.27,4.92.06,1.07.23,2.69,1.18,2.81,1.99.25,1.77-1.27,2.34-2.93,2.3-1.55-.04-3.1-.04-4.65-.04-2.54.01-2.89,1.66-2.93,3.72-.03,2.08.86,3.07,2.91,3.08,1.45,0,2.91,0,4.36-.01,4.57-.02,4.72.15,4.34,4.75h-15.72Z"/>
  <path class="cls-1" d="M595.61,375.41c1.08-4,2.1-8.02,3.27-11.99,1.09-3.71,2.33-7.37,3.54-11.04.53-1.58,1.09-3.17,3.25-3.15,2.18.03,2.81,1.39,3.39,3.25,1.89,6.09,4.06,12.1,5.96,18.19.46,1.48.27,3.15.38,4.74h-3.49c-.41-1.17-.76-2.36-1.25-3.5-.33-.77-.68-1.66-1.29-2.16-2.29-1.83-7.3-.51-8.44,2.16-.48,1.14-.84,2.33-1.25,3.5h-4.07ZM602.85,362.89c1.27.86,2.07,1.82,2.86,1.81.66-.01,1.91-1.26,1.83-1.79-.22-1.48-1.01-2.87-1.57-4.29-.89,1.23-1.79,2.46-3.11,4.28Z"/>
  <path class="cls-1" d="M439.03,375.41c-5.06-4.22-4.53-10.04-4.54-15.71,0-2.71-.02-5.42-.09-8.13-.04-1.55.51-2.41,2.18-2.32,1.47.09,2.65.36,2.61,2.29-.09,4.16-.06,8.32-.05,12.48,0,1.06.03,2.14.2,3.18.38,2.27,1.88,3.34,4.09,3.31,2.07-.03,3.28-1.3,3.36-3.29.18-5.02.17-10.05.33-15.07.03-.87.26-2.04.85-2.51,1.43-1.13,3.4-.04,3.42,1.83.04,5.52.42,11.08-.21,16.53-.3,2.59-2.59,4.95-3.98,7.41h-8.15Z"/>
  <path class="cls-1" d="M227.14,375.41c-.02-.09-.01-.23-.07-.28-4.68-4.08-4.14-9.62-4.17-14.99-.01-2.71.05-5.43-.05-8.14-.06-1.57.19-2.76,2.07-2.75,1.87.01,2.42,1.05,2.36,2.85-.12,3.97-.06,7.95-.05,11.92,0,.97-.05,1.97.18,2.89.58,2.28,1.87,3.94,4.49,3.59,2.4-.32,3.44-1.94,3.44-4.3,0-4.65.01-9.31-.02-13.96-.01-1.52-.15-3,2.07-3.01,2.16,0,2.8,1.02,2.69,3.11-.29,5.31-.28,10.65-.67,15.95-.11,1.53-1.14,3.01-1.85,4.46-.46.94-1.12,1.77-1.69,2.65h-8.73Z"/>
  <path class="cls-1" d="M269.63,375.41c-.55-.74-.96-1.66-1.66-2.21-5.12-3.96-4.91-18.82.94-22.63,4.32-2.81,11.2-1.27,12.99,3.55.31.83-.35,2.79-1,3.03-.96.36-2.81.04-3.42-.69-2.56-3.13-5.92-3.09-7.71.53-1.77,3.59-1.77,7.36.14,10.9,1.89,3.5,5.55,3.5,7.42,0,.96-1.8,2.11-2.1,3.77-1.32,1.9.9,1.46,2.38.62,3.65-1.2,1.81-2.62,3.46-3.95,5.19h-8.15Z"/>
  <path class="cls-1" d="M248.68,375.41c-.55-.74-.96-1.66-1.66-2.21-4.99-3.89-5.08-18.52.72-22.42,4.52-3.04,10.41-2.03,13.23,3.38.35.67-.28,2.62-.88,2.84-1.01.38-2.89.31-3.48-.38-2.96-3.41-7.04-3.13-8.2,1.18-.76,2.84-.58,6.16.06,9.07.31,1.42,2.49,2.85,4.13,3.43,1.83.64,3.23-.78,3.94-2.61.71-1.84,2.08-1.8,3.57-1.15,1.76.77,1.52,2.1.68,3.35-1.25,1.88-2.63,3.67-3.96,5.51h-8.15Z"/>
  <path class="cls-1" d="M585.72,375.41c-2.12-7.03-4.24-14.05-6.35-21.08-.19-.65-.29-1.32-.47-1.98-.29-1.07-1.76-2.41.45-2.95,1.64-.4,3.3-.45,3.87,1.83.96,3.84,2.03,7.65,3.1,11.45.24.85.66,1.66.99,2.48.3.02.61.04.91.06.49-1.26,1.07-2.5,1.45-3.79.97-3.33,1.76-6.72,2.83-10.02.27-.84,1.25-1.87,2.07-2.04,1.61-.33,3.2-.17,2.42,2.41-2.12,7.02-4.11,14.07-6.13,21.12-.23.81-.33,1.67-.48,2.5h-4.66Z"/>
  <path class="cls-1" d="M621.23,375.41c-.05-5.9-.2-11.81-.11-17.71.04-2.5-.55-3.98-3.36-3.72-2.01.19-3.18-.63-3.08-2.78.11-2.24,1.86-1.87,3.23-1.89,3.78-.06,7.56.01,11.34-.05,1.56-.03,2.42.47,2.32,2.15-.09,1.43-.2,2.6-2.21,2.65-3.96.11-3.95.24-3.96,4.22-.01,5.71-.06,11.43-.09,17.14h-4.07Z"/>
  <path class="cls-1" d="M356.95,375.41c-.03-5.91-.16-11.83-.05-17.74.05-2.57-.74-3.99-3.44-3.67-2.02.23-2.85-.59-2.9-2.56-.06-2.19,1.32-2.19,2.91-2.17,3.78.05,7.57,0,11.35.03,1.43,0,2.75.11,2.69,2.14-.05,1.85-.91,2.72-2.7,2.53-3.1-.33-3.73,1.25-3.68,4.01.12,5.81-.05,11.63-.1,17.44h-4.07Z"/>
  <path class="cls-1" d="M708.54,235.79c-.61.66-1.35,1.24-1.79,1.99-1.8,3.09-4.18,5.17-7.96,5.45-5.63.42-10.43-.35-13.39-6.14-2.27-4.42-1.83-8.43.67-12.27,2.48-3.81,6.21-5.55,10.88-5.32,4.81.23,8.17,2.43,10.24,6.74.27.56.9.94,1.36,1.41v8.14ZM706.78,231.54c.46-6.12-5.7-10.65-10.44-10.6-4.97.06-10.69,4.12-10.5,11.2.14,5.2,5.61,10.01,10.51,10.08,4.94.07,11.13-5.55,10.43-10.68Z"/>
  <path class="cls-1" d="M634.61,375.41c-.23-4.33-.53-8.65-.66-12.98-.1-3.67-.11-7.36.12-11.02.04-.73,1.24-1.8,2.04-1.94.6-.1,2.02,1.04,2.03,1.65.1,7.35.02,14.7-.07,22.05,0,.75-.36,1.5-.55,2.25h-2.91Z"/>
  <path class="cls-1" d="M508.3,375.41c-.25-1.52-.69-3.03-.72-4.56-.09-6.3,0-12.6-.08-18.9-.02-1.59.31-2.97,2.08-2.61.75.15,1.71,1.68,1.73,2.61.15,6.3.11,12.6.03,18.9-.02,1.52-.46,3.04-.71,4.56h-2.33Z"/>
  <path class="cls-1" d="M527.51,375.41h-7.57v-13.9c.4-.08.81-.16,1.21-.24"/>
  <path class="cls-1" d="M148.15,275.47c0-14.64,0-29.28,0-43.91,0-3.68.11-3.76,3.72-3.76,5.24,0,10.48.11,15.71-.05,2.65-.08,3.46,1.11,3.34,3.49-.09,1.74-.18,3.49-.07,5.23.05.86.52,1.7.81,2.55.84-.37,1.8-.6,2.51-1.15,3.36-2.57,6.34-5.86,10.05-7.73,7.98-4.05,16.32-5.85,25.5-3.32,7.17,1.97,12.54,5.73,16.59,11.69,1.38,2.04,2.51,1.42,3.98.14,3.2-2.78,6.24-5.88,9.82-8.07,7.43-4.53,15.54-5.96,24.24-4.25,7.44,1.46,13.67,4.7,18.23,10.8,3.01,4.03,4.84,8.55,4.87,13.66.16,23.16.28,46.31.49,69.47.02,1.97-.72,2.63-2.51,2.63-6.6,0-13.19-.04-19.79.03-2.39.02-2.28-1.47-2.27-3.11.02-14.06.05-28.11,0-42.17-.02-6.39.07-12.81-.45-19.16-.32-3.86-.97-8.01-4.42-10.67-5.79-4.47-10.9-3.78-16.57-.98-7.33,3.61-10.12,10.19-10.27,17.83-.37,18.4-.45,36.8-.55,55.2-.01,2.11-.65,3.04-2.77,3.04-6.79-.03-13.58-.02-20.37.03-1.88.01-2.22-.98-2.21-2.59.05-18.13.12-36.26,0-54.38-.03-4.12-.51-8.27-1.19-12.34-1.26-7.56-9.69-9.99-15.96-8.55-8.69,2-13.84,9.52-14.84,19.05-1.97,18.76-.91,37.53-1.07,56.29-.02,1.81-.71,2.49-2.35,2.5-6.69.01-13.39-.01-20.08.03-2.2.01-2.14-1.39-2.13-2.95.02-14.83.01-29.66.01-44.5Z"/>
  <path class="cls-1" d="M679.86,297.31c-4.52,11.1-10.75,19.24-21.26,23.96-9.91,4.45-20.31,4.49-30.45,3.01-16.06-2.35-28.31-11.85-32.86-29.43-1.7-6.57-3.05-13.52-2.82-20.23.46-13.36,3-26.37,13.22-36.34,11.15-10.88,24.31-14.38,39.66-11.62,10.1,1.82,18.44,6.13,24.92,13.95,4.31,5.2,6.76,11.31,8.48,17.86,1.81,6.93,1.86,13.91,2.11,20.95.1,2.69-.74,3.36-3.24,3.35-18.24-.07-36.47-.04-54.71-.04-.97,0-2.08-.24-2.87.14-.87.42-1.98,1.38-2.07,2.2-.73,7.34,7.37,19.2,14.44,20.61,10.4,2.07,16.85.89,21.79-10.01.88-1.94,1.8-2.32,3.71-1.98,7.1,1.25,14.22,2.37,21.94,3.64ZM637.5,267.4c5.24,0,10.47-.1,15.7.04,2.61.07,3.86-1.1,3.22-3.45-1.03-3.77-2.05-7.68-3.9-11.08-3.53-6.49-11.87-9.44-18.25-7.99-9.37,2.13-14.92,9.23-15.58,18.81-.18,2.55.62,3.78,3.39,3.71,5.14-.13,10.28-.04,15.41-.04Z"/>
  <path class="cls-1" d="M501.75,275.66c0,14.63-.05,29.27.05,43.9.02,2.38-.65,3.37-3.08,3.34-5.62-.08-11.25-.07-16.87,0-2.34.03-3.36-.79-3.14-3.27.21-2.31.13-4.65.02-6.97-.03-.65-.62-1.27-.95-1.91-.57.3-1.3.46-1.67.91-5.32,6.59-12.36,10.84-20.43,12.39-12.23,2.36-27.52,1.11-35.74-12.7-3.11-5.22-4.45-11.22-4.51-17.2-.23-20.64-.1-41.28-.1-61.92,0-4.45.01-4.45,4.53-4.45,5.53,0,11.06.1,16.58-.05,2.58-.07,3.45.95,3.44,3.4-.08,15.21-.23,30.43-.05,45.64.07,6.16.67,12.35,1.49,18.46.75,5.61,6.28,9.86,12.51,10.59,8.93,1.04,15.85-2.21,20.06-10.01,1.67-3.09,2.42-7.01,2.47-10.57.24-17.54.12-35.08.11-52.62q0-4.84,4.68-4.83c5.53,0,11.05-.01,16.58,0,3.64,0,4.02.37,4.02,3.97,0,14.63,0,29.27,0,43.9Z"/>
  <path class="cls-1" d="M333.37,274.38c.93,5.57,1.66,11.19,2.85,16.7,1.7,7.89,9.6,14,19.13,13.7,8.51-.27,14.49-4.79,16.64-13.34.07-.28.18-.55.27-.83,1.43-3.98,1.4-3.83,5.52-3.05,5.3,1.01,10.65,1.8,16,2.55,3.67.51,4.05,1.47,2.85,5-2.2,6.47-5.06,12.49-9.66,17.62-4.59,5.12-10.38,8.06-16.87,10.13-8.25,2.63-16.67,2.34-25,1.57-6.64-.61-12.83-3.22-18.47-7.06-7.79-5.31-12.42-12.87-15.61-21.38-2.04-5.45-2.58-11.28-2.52-17.11.05-5.12-.37-10.34.49-15.34,2.46-14.41,9.21-26.28,22.87-32.86,10.73-5.16,22.03-6.08,33.89-3.88,12.86,2.39,21.74,9.38,27.56,20.72,1.04,2.03,1.73,4.27,2.4,6.47.44,1.45-.1,2.18-1.85,2.45-5.72.88-11.42,1.89-17.07,3.11-3.95.86-4.13.94-5.66-2.84-3.46-8.54-9.63-11.91-19.06-11.2-10.32.77-16.81,9.94-17.44,18.6-.25,3.37-.48,6.75-.72,10.12-.17.04-.35.09-.52.13Z"/>
  <path class="cls-1" d="M550.74,239.82c.83-.71,1.77-1.33,2.47-2.14,1.71-1.96,3.16-4.16,4.98-6.01,5.13-5.21,11.39-7.13,18.54-5.51,2.99.68,5.83,1.99,8.79,2.83,2.2.63,2.83,2.02,2.18,3.95-1.89,5.55-3.87,11.07-5.93,16.56-.67,1.77-1.72,2.48-3.81,1.22-11.15-6.71-20.62-.45-23.53,10.32-1.93,7.16-1.74,14.35-1.99,21.55-.43,12.66-.58,25.32-.77,37.98-.03,1.69-.8,2.29-2.27,2.29-6.79.02-13.57.02-20.36.02-2.02,0-1.95-1.39-1.95-2.83.02-7.36.02-14.73.02-22.09,0-21.99,0-43.99,0-65.98q0-4.21,4.15-4.2c5.14,0,10.28.09,15.41-.04,2.5-.07,3.26,1.08,3.22,3.32-.05,2.82-.01,5.65-.01,8.47l.87.28Z"/>
  <path class="cls-1" d="M691.32,237.39c-.3-.74-.83-1.48-.87-2.23-.12-2.52-.1-5.04-.03-7.56.02-.61.26-1.37.67-1.78,1.16-1.16,7.71-.91,8.85.32,1.12,1.21,1.99,2.65.38,4.03-1.94,1.66-1.24,3.13-.1,4.8.56.81.87,1.79,1.29,2.69-.33.22-.65.44-.98.66-.81-.81-1.65-1.59-2.41-2.45-.76-.86-1.31-1.97-2.2-2.63-.67-.49-1.83-.73-2.61-.51-.45.12-.65,1.37-.83,2.14-.18.77-.21,1.58-.3,2.37-.29.05-.58.1-.88.15ZM695.52,231.44c1.34-1.16,2.16-1.87,2.98-2.58-1.18-.7-2.3-1.75-3.56-1.97-.73-.13-1.69,1.09-2.54,1.7.91.83,1.82,1.66,3.12,2.85Z"/>
</svg>