<?xml version="1.0" encoding="UTF-8"?>
<svg id="Layer_3" data-name="Layer 3" xmlns="http://www.w3.org/2000/svg" viewBox="0 0 689.78 517.67">
  <defs>
    <style>
      .cls-1 {
        fill: #fff;
        stroke-width: 0px;
      }
    </style>
  </defs>
  <path class="cls-1" d="M102.11,234.39c.63-1.39,1.51-2.72,1.86-4.17,6.42-27.07,32.13-46.47,59.37-44.73,28.49,1.82,51.35,23.39,54.37,51.62.58,5.4.08,10.91.08,16.83h-92.87c2.33,13.9,17.28,26.69,32.27,27.13,5.72.17,11.9-.5,17.12-2.64,5.65-2.32,11.1-3.14,16.98-3.01,5.51.13,11.03.03,16.54.03.32.4.64.79.96,1.19-4.52,4.45-8.62,9.47-13.64,13.26-33.84,25.55-82.27,7.34-91.35-34.14-.29-1.31-1.11-2.51-1.69-3.76,0-1.3,0-2.61,0-3.91v-9.78c0-1.3,0-2.61,0-3.91ZM195.74,233.19c-1.9-14.57-18.79-27.24-35.89-27.11-16.33.13-33.09,13.18-34.72,27.11h70.61Z"/>
  <path class="cls-1" d="M629.03,301.63h-19.35v-13.62c-1.73,1.01-2.8,1.53-3.76,2.22-35.76,25.97-85.55,4.69-91.48-39.11-4.12-30.4,16.68-59.26,46.56-64.62,31.27-5.6,60.76,14.18,67.33,45.1.35,1.63,1.17,3.16,1.77,4.74v10.76c-.32,1.66-.91,3.32-.92,4.98-.11,16.52-.12,33.03-.15,49.55ZM534.34,243.37c0,21.02,16.47,37.78,37.21,37.88,20.63.1,37.92-16.96,37.88-37.39-.04-20.91-16.68-37.73-37.37-37.78-20.95-.05-37.72,16.54-37.72,37.29Z"/>
  <path class="cls-1" d="M486.38,146.39c.41,1.98,1.18,3.96,1.18,5.94.07,38.59.17,77.17-.03,115.76-.05,9.16,1.24,14.24,12.73,13.21.45-.04.92.12,1.64.22v20.74c-7.52-.54-14.84-.53-21.95-1.74-6.99-1.19-11.3-7.28-12.16-15.32-.24-2.26-.2-4.55-.2-6.83-.01-42.17-.02-84.34.04-126.51,0-1.83.75-3.65,1.14-5.47,5.87,0,11.73,0,17.6,0Z"/>
  <path class="cls-1" d="M498.11,371.28c-1.37-.76-2.7-1.59-4.1-2.28-6.67-3.23-11.07-10.7-10.51-17.88.64-8.09,5.53-14.52,12.78-16.79,8.07-2.53,14.62-.59,20.2,6.19-1.32.84-2.61,1.66-2.85,1.81-4.59-1.5-8.27-3.6-12.02-3.72-5.21-.17-9.26,2.88-11.13,8-2,5.46-1.3,10.68,2.59,15.07,3.78,4.27,8.79,4.49,13.94,3.16,4.29-1.11,5.57-3.97,4.09-8.62h-10.12c-.09-1.86-.15-3.23-.23-4.88h16.17c1.68,13.87,2.25,14.71-11.96,19.94h-6.84Z"/>
  <path class="cls-1" d="M444.33,371.28c-.7-.57-1.32-1.33-2.12-1.69-9.25-4.17-13.54-13.08-10.94-22.83,2.28-8.55,10.51-14.37,19.05-13.46,9.95,1.05,16.24,7.58,16.96,17.59.71,9.97-4.8,17.07-15.12,19.53-.38.09-.66.56-.99.86h-6.84ZM448.93,365.44c7.43.01,12.42-5.3,12.44-13.24.02-8.11-5.29-13.91-12.62-13.77-7.19.14-12.22,5.8-12.17,13.68.06,8.02,4.96,13.31,12.35,13.32Z"/>
  <path class="cls-1" d="M353.4,371.28c-.7-.57-1.31-1.34-2.11-1.7-9.06-4.09-13.52-13.08-11.05-22.36,2.4-8.99,10.47-14.84,19.2-13.91,9.96,1.07,16.19,7.54,16.96,17.61.75,9.84-4.89,17.06-15.17,19.5-.38.09-.66.57-.99.86h-6.84ZM358.18,365.45c7.35-.02,12.28-5.32,12.36-13.28.08-8.01-5.25-13.86-12.56-13.77-7.19.09-12.29,5.67-12.32,13.48-.03,8.23,4.91,13.58,12.52,13.56Z"/>
  <path class="cls-1" d="M611.53,371.28c-3.28-1.87-6.56-3.73-10.1-5.75,1.13-1.69,1.91-2.87,2.31-3.46,4.36,1.19,8.25,2.59,12.27,3.25,3.36.55,6.95-.24,7.59-4.3.69-4.41-3.28-4.98-6.28-6.02-3.06-1.06-6.25-1.74-9.25-2.94-3.65-1.46-5.54-4.31-5.54-8.36,0-4.03,2.04-6.72,5.44-8.54,6.35-3.39,14.34-2.17,20.46,3.24-.82,1.09-1.66,2.21-2.55,3.39-.56-.12-1-.19-1.42-.3-3.67-.99-7.31-2.48-11.03-2.74-1.5-.11-4.25,2.28-4.49,3.84-.22,1.38,1.97,3.6,3.61,4.67,1.68,1.1,3.96,1.38,6.01,1.82,5.15,1.11,9.17,3.67,11.55,8.51v4.89c-2.4,4.95-6.93,7.06-11.73,8.8h-6.84Z"/>
  <path class="cls-1" d="M203.8,371.28c-1.32-.81-2.61-1.7-3.98-2.42-6.95-3.63-10.73-11.21-9.79-19.73.8-7.27,6.38-13.38,13.93-15.25,7.71-1.92,14.18.47,18.91,7.2-1.35.8-2.67,1.59-3.92,2.33-7.58-6.15-14.65-6.32-19.57-.63-4.67,5.39-4.27,14.77.83,19.64,5.07,4.84,12.17,4.35,18.54-1.55,1.26.61,2.67,1.29,5.76,2.79-4.98,2.95-8.93,5.29-12.88,7.63h-7.82Z"/>
  <path class="cls-1" d="M629.03,301.63c.04-16.52.05-33.03.15-49.55.01-1.66.6-3.32.92-4.98v54.76c-.36-.07-.72-.15-1.08-.22Z"/>
  <path class="cls-1" d="M618.38,371.28c4.81-1.74,9.33-3.85,11.73-8.8v8.8h-11.73Z"/>
  <path class="cls-1" d="M447.87,253.93h-92.86c4.42,13.88,13.23,22.39,26.55,26.13,8.43,2.36,16.67,1.22,24.83-1.97,3.79-1.48,7.99-2.31,12.06-2.57,6.59-.41,13.23-.11,20.06-.11-9.77,18.1-38.89,33.5-68.11,22.21-28.5-11.01-43.67-41.98-34.85-70.84,9.02-29.5,38.87-46.9,68.49-39.99,30.21,7.05,49.52,37.02,43.82,67.15ZM355.63,233.13h70.9c-2.48-14.17-18.08-26.61-33.65-27.04-17.6-.49-33.7,11.09-37.25,27.04Z"/>
  <path class="cls-1" d="M286.05,236.48c0,4.8,0,9.6,0,14.4-1.5,9.49-4.95,18.22-10.1,26.31-3.79,3.76-7.34,7.81-11.42,11.22-10.22,8.54-22.12,12.8-35.87,13.06v-19.75c25.31-4.64,37.38-18.05,36.73-40.65-.53-18.7-15.01-32.73-36.76-35.32v-20.06c12.89.26,24.43,4.01,34.36,11.94,4.65,3.72,8.64,8.27,12.93,12.45,5.16,8.11,8.6,16.89,10.12,26.4Z"/>
  <path class="cls-1" d="M286.05,236.48c-1.51-9.51-4.96-18.28-10.12-26.4,6.87-7.38,13.58-15.16,23.29-18.77,6.77-2.51,13.98-3.88,21.05-5.48.72-.16,2.66,1.62,2.71,2.57.28,4.86.29,9.76,0,14.62-.06,1.06-1.63,2.78-2.67,2.92-18.02,2.3-29.18,12.23-33.74,29.73-.08.29-.35.54-.53.8Z"/>
  <path class="cls-1" d="M275.96,277.19c5.15-8.08,8.6-16.82,10.1-26.31,2.78,9.76,7.18,18.73,16.25,23.88,6.17,3.5,13.21,5.49,20.54,8.43v17.82c-12.28.51-22.95-3.37-32.38-10.31-5.29-3.89-9.7-8.96-14.51-13.51Z"/>
  <path class="cls-1" d="M291.17,334.32c4.12-1.33,6.55.51,8.77,3.88,3.93,5.97,8.27,11.67,12.47,17.46.8,1.1,1.73,2.12,3.52,4.31v-25.68h5.85v35.38c-3.29,1.36-5.63.52-7.72-2.52-5.23-7.59-10.7-15.03-17.13-22.32v25.1c-2.22.15-3.77.25-5.76.39v-36Z"/>
  <path class="cls-1" d="M265.33,334.2h5.73v35.76h-5.52v-15.62h-19.54v15.59h-5.8v-35.71h5.45v14.61h19.68v-14.64Z"/>
  <path class="cls-1" d="M585.05,364.93v5.01h-23.89v-35.56h23.94c.06,1.3.13,2.68.22,4.51h-18.37v10.02h17.87v5.1h-17.95v10.93h18.19Z"/>
  <path class="cls-1" d="M173.44,339.14h-18.35v9.86h17.33c.14,1.75.24,3.1.38,4.9h-17.57v11.1h17.92v4.99h-23.86v-35.69h23.92c.07,1.44.14,2.79.24,4.84Z"/>
  <path class="cls-1" d="M120.66,339.01v30.97c-1.89.08-3.55.16-5.65.25v-30.9h-10.86c-.09-1.88-.16-3.36-.24-5.07h27.54c.06,1.41.13,2.88.22,4.76h-11Z"/>
  <path class="cls-1" d="M394.67,334.18h5.44v30.65h15.48c1.24,3.59,1.08,5.6-3.23,5.46-5.81-.19-11.63-.05-17.69-.05v-36.06Z"/>
  <path class="cls-1" d="M535.87,334.18h5.19v35.67h-5.19v-35.67Z"/>
</svg>