<?xml version="1.0" encoding="UTF-8"?>
<svg id="Layer_4" data-name="Layer 4" xmlns="http://www.w3.org/2000/svg" viewBox="0 0 707.56 504.89">
  <defs>
    <style>
      .cls-1 {
        fill: #fff;
        stroke-width: 0px;
      }
    </style>
  </defs>
  <path class="cls-1" d="M145.79,189.38c.91-1.5,1.51-2.39,2.01-3.34,2.98-5.68,7.64-8.84,14.04-9.35,1.84-.15,3.69-.25,5.54-.25,35.38-.02,70.75-.01,106.13-.01,1.22,0,2.44,0,3.77,0-2.44,8.83-8.55,14-17.25,14.56-2.71.17-4.42.98-5.78,3.44-3.13,5.64-8.55,7.75-14.58,8.88-1.37.26-2.98,1.26-3.72,2.41-4.09,6.32-9.91,9.15-17.25,9.17-10.17.03-20.35-.01-30.52.03-1.93,0-4.18-.72-4.38,2.76-.2,3.48,1.47,4.01,4.29,4.19,10.38.66,20.74,1.56,31.12,2.19,14.99.92,25.81,8.26,32.41,21.52,4.21,8.47,7.7,17.3,11.35,26.04,1.19,2.84,2.23,4.61,6.01,3.67,3.56-.89,6.79.71,8.89,4.01,1.92,3.01,3.88,5.98,5.83,8.99-4.78,3.51-13.54,1.71-17.72-4.27-2.63-3.76-4.49-8.05-6.74-12.07-.55-.98-1.26-1.87-1.9-2.8-.3.1-.6.19-.9.29-.11,1.2-.3,2.41-.31,3.61-.04,4.05-.01,8.1,0,12.15.01,6.11-.91,7.42-6.69,9.76-1.2.49-2.28,1.25-3.42,1.88.06.46.13.91.19,1.37,4.23.06,8.47.14,12.7.17,4.51.03,9.02,0,13.53,0h13.24v10.45c-1.19.08-2.4.24-3.61.24-74.22.01-148.44-.01-222.66.08-3.18,0-3.79-1-3.77-3.95.14-17.48.13-34.95,0-52.43-.02-2.59.74-3.82,3.25-4.27,2.27-.41,4.57-.91,6.67-1.82.85-.37,1.82-2.07,1.64-2.94-1.76-8.49-.88-10.15,7.15-12.61.44-.13.96-.23,1.27-.52,5.23-5.09,10.47-3.16,15.34.33,2.61,1.88,3.96,1.68,5.22-1.14.47-1.05,1.12-2.03,1.81-2.95,1.18-1.58,1.38-2.84-.11-4.56-2.11-2.44-1.37-4.45,1.76-5.39,1.98-.59,4.08-.77,6.09-1.3,1.42-.38,3.04-.74,4.06-1.68.79-.72.78-2.32,1.13-3.53-1.13-.02-2.36-.35-3.35,0-2.57.89-4.95,2.67-7.55,3-4.14.53-6.24-2.19-5.7-6.39.06-.45.23-1.03.04-1.35-2.54-4.09.12-6.82,2.27-9.91,2.56-3.68,4.83-7.59,6.99-11.53,4.05-7.39,9.92-12.06,18.58-11.66,9.48.44,17.11,4.49,21.71,13.24.51.97,1.03,1.93,1.91,3.58ZM233.53,180.51c-2.1-.1-3.22-.21-4.33-.21-21.5,0-43.01.21-64.51-.12-8.41-.13-13.27,4.77-15.11,11.52-1.94,7.13-3.97,14.23-5.8,21.39-.26,1.01.02,2.62.69,3.35,6.34,6.87,5.8,15.06-1.73,20.47-1.93,1.39-2.03,2.53-1.33,4.59,1.56,4.59-.32,9.47-4.78,11.31-4.59,1.88-5.64,5.23-5.58,9.59.07,5.44.05,10.88.02,16.32-.02,4.32-1.66,6.08-5.87,6.57-1.25.15-2.56.31-3.71.78-3.21,1.3-4.5,5.66-2.98,9.6.89,2.29,3.26,2.77,6.91,1.39.64-.24,1.44-.44,1.83-.93,2.06-2.58,4.9-2.62,7.82-2.75,4.27-.19,5.13-1.16,5.74-5.3.16-1.09.83-2.09,1.22-3.15.31-.83.96-1.79.77-2.51-1.58-5.88-.73-11.65.37-17.46.42-2.22,1.35-3.13,3.7-3.04,2.52.1,5.15.09,7.59-.5,8.18-1.98,16.32-4.15,24.42-6.43,9.28-2.62,17.96-2.23,26.07,3.73,2.45,1.8,5.5,3.13,8.48,3.8,6.75,1.5,13.59,2.69,20.44,3.58,7.76,1.01,9,2.03,9.71,9.73.16,1.73.27,3.47.61,5.17.42,2.08-.45,2.94-2.4,3.3-2.73.5-5.54.87-8.08,1.89-1.84.74-4.43,2.28-4.65,3.76-.33,2.21,1.06,4.71,1.93,7.01.14.36,1.5.61,2.09.38,5.73-2.16,11.47-4.31,17.06-6.79,1.16-.52,2.41-2.39,2.44-3.67.19-9.83.21-19.68.04-29.51-.11-5.91-3.7-10-9.36-10.57-11.79-1.19-20.73-6.53-26.52-17.05-.66-1.2-2.37-2.44-3.69-2.56-9.67-.87-19.36-1.49-29.05-2.08-1.17-.07-2.59.24-3.55.88-4.84,3.23-9.35,2.03-13.96-1.08,1.25-.73,2.59-1.19,3.93-1.17,1.46.03,2.93.76,4.38.73,3.34-.06,6.16-3.13,6.04-6.38-.16-4.07-3.23-3.1-5.63-3.15-3.39-.07-6.79-.02-10.18-.02-.13-.52-.26-1.04-.4-1.55,1.43-.67,2.83-1.82,4.3-1.92,4.03-.27,8.15.35,12.11-.23,3.64-.53,7.21-1.97,10.64-3.42,1.29-.55,2.09-2.28,3.11-3.47l-.64-1.14h-23.24c.62-3.15,2.26-3.73,4.68-3.67,5.89.14,11.79.09,17.69.03,3.58-.03,7.19.03,10.73-.39,4.69-.56,8.73-4.04,9.27-8h-36.85c.44-3.14,2.04-3.56,4.28-3.54,13.18.08,26.37.27,39.54-.13,3.58-.11,7.16-1.99,10.61-3.38.98-.39,1.49-1.94,2.68-3.62ZM119.32,249.24c0,3.21.23,6.29-.07,9.32-.24,2.38.61,2.95,2.67,2.61,4.19-.69,6.29-3.65,7.51-7.32.67-2.02,1.65-2.95,3.82-3.69,1.96-.67,4.31-2.88,4.68-4.76.36-1.86-1.4-4.24-2.52-6.23-.47-.84-1.69-1.25-3.13-2.25,2.22-.55,3.68-.81,5.07-1.28,4.14-1.38,7.01-4.09,7.82-8.47.77-4.19-1.28-7-4.8-9.14-.74-.45-1.22-2.27-.98-3.26.97-4.03,2.42-7.94,3.4-11.97,1.85-7.56-.33-14.16-5.36-19.9-.55-.63-1.49-.92-2.25-1.36-.39.75-.8,1.49-1.16,2.25-1.02,2.18-1.52,4.87-3.12,6.43-2.48,2.41-3.17,4.83-2.35,7.99.16.61.02,1.29.02,1.89-5.64,1.12-5.81,1.38-4.9,6.91.24,1.48.48,2.97.6,4.46.42,5.06-1.79,8.84-6.14,11.11-2.51,1.31-5.52,2.89-8.1,2.58-6.32-.74-9.24,2.59-11.45,7.54-.09.21-.24.4-.39.57-1.5,1.71-1.71,3.43-.2,5.28,1.48,1.8,1.18,3.32-1.06,4.66-.99-1.45-1.71-3.13-2.95-4.2-3.08-2.68-6.24-5.32-9.69-7.45-1.08-.67-3.96-.27-4.67.66-1.54,2.04-3.21,2.33-5.49,2.53-3.26.28-4.8,2.81-4.12,5.92.77,3.55,2.34,4.66,5.98,3.35,4.37-1.57,8.5-1.32,12.83.02,4.74,1.46,9.61,2.5,14.39,3.86,3.1.88,7.53.47,5.88,6.6.36.06.72.12,1.08.18,2.91-1.73,5.83-3.46,9.15-5.43ZM105.48,272.93c0-5.89-.07-11.79.04-17.68.04-2.15-.48-3.37-2.8-3.92-6.29-1.5-12.5-3.29-18.77-4.89-.96-.24-2.08-.26-3.04-.02-6.27,1.57-12.5,3.31-18.78,4.84-2.19.53-3.04,1.65-3.03,3.87.05,11.91.05,23.81,0,35.72,0,2.54.98,3.29,3.43,2.61,5.56-1.55,11.12-3.1,16.75-4.38,1.93-.44,4.12-.43,6.06,0,4.96,1.08,9.84,2.53,14.75,3.81,5.35,1.39,5.37,1.39,5.39-3.99.02-5.32,0-10.63,0-15.95ZM140.45,298c.36.05,1.41.34,2.46.35,6.13.05,12.26-.09,18.38.08,3.11.09,4.53-.46,4.35-4.17-.35-7.04,4.88-11.41,11.87-10.48,1.72.23,3.42.88,5.12.83,1.44-.04,3.06-.52,4.25-1.33,1.4-.95,2.4-2.48,3.58-3.75,1.54-1.65,1.74-3.31.46-5.32-2.6-4.1-5.23-8.2-7.48-12.49-1.63-3.11-3.5-3.54-6.72-2.52-9.11,2.91-18.11,6.43-27.94,6.37-.88,0-2.36,1.78-2.57,2.91-1.06,5.7-1.68,11.44,1.72,16.49-1.27,1.07-2.61,1.67-3.11,2.69-1.58,3.25-2.85,6.66-4.38,10.34ZM194.67,298.02h31.97c-.48-1.76-.84-3.05-1.19-4.36-1.37-5.17,1.21-9.53,6.39-10.77,1.91-.46,3.85-.78,5.74-1.29.86-.23,1.92-.55,2.39-1.19,2.37-3.23-1.05-9.96-5.02-10.56-7.51-1.13-15-2.48-22.47-3.85-1.75-.32-3.42-1.08-5.13-1.63-.28.23-.56.45-.84.68.97,2.33,1.87,4.68,2.91,6.97,1.99,4.4,1.4,8.22-2.08,11.69-3.51,3.51-6.85,7.19-10.22,10.84-.79.86-1.36,1.91-2.45,3.46ZM123.6,191.97c4.36-2.97,7.83-6.26,6.52-12.91-2.51,1.48-4.53,2.48-6.35,3.78-3.37,2.41-6.83,3.87-11.19,3.55-2.24-.16-4.81.81-6.81,1.99-1.16.69-1.9,2.79-1.95,4.29-.02.63,2.19,1.39,3.43,2,.58.28,1.27.34,1.93.51-1.4,3.62-1.79,3.62-4.34,1.23-.72-.67-2.77-1.1-3.23-.65-1.78,1.75-3.48,3.75-4.5,5.99-.34.75,1.46,2.47,2.4,3.92-.11.17-.46.53-.58.94-.28,1-.45,2.04-.66,3.06,1.07-.08,2.26.11,3.19-.29,1.47-.63,2.73-1.72,4.13-2.52,3.9-2.19,6.8-1.59,8.55,1.71,1.77,3.34.38,7.22-3.58,8.69-2.42.89-5.17.85-7.73,1.39-1.06.22-2.02.89-3.02,1.36.95.67,1.87,1.84,2.87,1.91,2.85.2,5.84.41,8.58-.22,7.5-1.72,10.06-5.68,9.14-13.22-.18-1.49-.76-3.01-.57-4.44.23-1.73.58-4.17,1.76-4.91,3.05-1.92,3.78-4.03,2-7.16ZM179.35,298.35s0,.02,0,.03c2.31,0,4.63.16,6.92-.06,1.28-.12,2.84-.55,3.69-1.41,5.25-5.37,10.35-10.88,15.45-16.39,1.69-1.84,2.22-3.92.99-6.36-1.56-3.09-3.2-6.18-4.3-9.44-2.21-6.52-7.21-7.82-13.15-7.63-3.1.1-3.56.85-2.03,3.5,2.36,4.1,4.81,8.16,7.23,12.22,1.49,2.51,1.56,5.04.09,7.54-4.12,7.03-7.39,8.53-15.31,7.12-.68-.12-1.37-.24-2.06-.31-5.27-.48-8.94,3.51-7.77,8.7.22.98,1.65,2.23,2.65,2.36,2.49.34,5.07.11,7.61.11ZM115.65,257.36c-5.21-.31-6.4.35-6.42,3.45-.07,11.68-.14,23.36-.02,35.03,0,.85,1.39,2.22,2.34,2.43,3.14.69,3.57-1,3.14-3.8-1.2-7.78,1.82-11.77,9.47-12.59,2.26-.24,2.97-1.17,2.93-3.29-.08-3.93-.1-7.87,0-11.79.06-2.38-.74-3.02-3.11-2.51-2.94.64-5.97.85-9.31,1.3.39-3.31.68-5.76.98-8.23ZM214.09,199.25c.39.16.79.48,1.2.48,7.96-.02,15.92.03,23.88-.15,4.07-.1,7.66-1.7,10.41-4.78.62-.7.83-1.78,1.22-2.68-.91-.31-1.82-.89-2.73-.9-8.08-.07-16.16-.04-24.23-.04-5.15,0-8.16,2.47-9.75,8.08ZM232.47,203.34c-2.05,0-3.16,0-4.28,0-8.19,0-16.37,0-24.56,0-3.7,0-7.35,3.51-7.87,7.46,9.16,0,18.35.3,27.5-.15,3.78-.18,6.9-2.72,9.2-7.32ZM234.75,187.25c.58.16.91.33,1.24.33,7.49.01,14.99.08,22.48-.05,1.93-.03,3.97-.36,5.73-1.09,2.63-1.09,5.4-2.3,6.52-6.14-1.69,0-2.8,0-3.92,0-7.72,0-15.45,0-23.17,0-4.85,0-6.93,1.58-8.89,6.94ZM221.27,228.39c2.06,8.64,15.2,16.35,23.05,13.75-1.02-6.51-15.67-15.18-23.05-13.75ZM65.23,297.91c.99.25,1.82.64,2.65.64,9.81.05,19.62.07,29.42,0,.78,0,1.55-.66,2.32-1.01-.66-.65-1.22-1.67-2.01-1.89-4.55-1.29-9.22-3.56-13.71-3.29-6.14.37-12.17,2.72-18.24,4.24-.12.03-.14.41-.43,1.3ZM110.47,181.91c5.73,1.18,10.11-.38,13.58-4.67-4.09-1.93-10.54.2-13.58,4.67ZM267.8,279.72c2.14,3.3,4.4,5.51,8.22,6.05-.79-5.17-3.37-7.17-8.22-6.05Z"/>
  <path class="cls-1" d="M595.15,251.69h22.01c.03.26.05.52.08.78-.8.16-1.63.55-2.39.44-3.89-.55-4.57,1.39-4.54,4.84.15,15.27.16,30.55,0,45.83-.04,3.36,1.19,4.14,4.25,3.97,9.18-.52,13.56-4.77,14.79-14.66.16-1.27.38-2.52,1.38-3.68v19.55h-50.84l-.08-.92c1.26-.1,2.52-.26,3.78-.28,1.98-.02,2.46-1.06,1.83-2.72-1.55-4.1-3.07-8.23-4.86-12.22-.4-.89-1.87-1.8-2.88-1.84-5.31-.2-10.63-.22-15.95-.05-.99.03-2.42,1.02-2.81,1.93-1.09,2.53-1.89,5.22-2.51,7.92-.98,4.24-.12,5.48,4.11,6.82.51.16.98.43,2.06.92-1.16.4-1.73.75-2.3.76-4.39.04-8.79.15-13.18-.03-6.31-.26-9.24-3.27-9.51-9.57-.13-3.12.05-6.25-.09-9.37-.27-6.34-3.31-9.28-9.57-9.46q-9.29-.27-9.29,9.07c0,4.74.19,9.5-.14,14.23-.19,2.8.54,3.89,3.34,3.64,1.17-.11,2.37.09,3.55.15,0,.32-.02.63-.02.95h-21.7c-.03-.26-.07-.53-.1-.79,1.46-.11,2.91-.33,4.37-.31,2.07.03,2.89-.88,2.89-2.93-.03-16.2-.03-32.4,0-48.61,0-2.24-.98-3.17-3.15-3.06-1.33.06-2.67.01-4.84.01.94-.99,1.21-1.51,1.47-1.51,10.39.09,20.81-.19,31.16.49,7.28.48,11.17,4.45,11.86,10.11.89,7.22-2.2,12.86-8.63,15.8-1,.46-1.97,1-3.8,1.93,1.59.83,2.35,1.44,3.21,1.65,4.34,1.03,6.46,3.99,6.78,8.16.35,4.49.17,9.02.51,13.51.1,1.38,1.08,3.73,1.81,3.79,1.43.12,3.79-.65,4.34-1.75,2.12-4.32,3.84-8.86,5.43-13.42,4.55-13.08,8.94-26.22,13.46-39.31.33-.96,1.22-1.72,1.84-2.57.77.88,1.87,1.63,2.26,2.66,6.54,17.28,12.98,34.59,19.45,51.89,1.04,2.79,4.36,4.29,6.88,2.89.69-.38,1.23-1.66,1.24-2.53.06-16.32.01-32.64.04-48.95,0-2.09-.9-2.92-2.93-2.87-1.39.03-2.78-.16-4.16-.25.03-.33.06-.66.09-.98ZM518.6,265.8c0,1.27,0,2.54,0,3.81q0,9.86,10.01,9.36c5.38-.27,9.06-3,10.01-8.34.59-3.32.58-6.92,0-10.26-.86-5.05-4.16-7.37-9.32-7.43-2.65-.03-5.31.06-7.96-.02-2.04-.06-2.91.64-2.8,2.83.17,3.34.04,6.7.05,10.04ZM570.36,289.35c2.19,0,4.38-.04,6.57.01,2.11.04,2.71-.96,2.04-2.84-2.58-7.29-5.17-14.57-7.81-21.83-.2-.56-.82-.98-1.24-1.46-.55.51-1.39.92-1.6,1.55-2.42,7.22-4.77,14.46-7.08,21.71-.6,1.88.16,2.88,2.18,2.86,2.31-.02,4.61,0,6.92,0Z"/>
  <path class="cls-1" d="M448.5,291.43c0-3.32,0-6.65,0-9.97,0-6.94.01-13.89,0-20.83-.02-5.72-.9-6.7-6.65-7.66-.6-.1-1.18-.37-1.75-1.32,1.04-.1,2.07-.27,3.11-.27,16.99,0,33.99.1,50.98,0,2.94-.02,4.15.61,3.95,3.82-.28,4.61-.07,9.24-.5,13.98-.72-2.42-1.45-4.83-2.14-7.25-1.46-5.17-4.97-7.97-10.19-8.53-3.09-.33-6.23-.29-9.34-.42-1.9-.08-2.74.86-2.73,2.73.02,6.71.02,13.43,0,20.14,0,1.9.89,2.59,2.78,2.65,4.82.17,7.91-1.84,9.75-6.69.44-1.17.7-2.4,1.52-3.58v23.5c-.12.03-.23.06-.35.09-.66-2.01-1.18-4.08-2.01-6.01-1.69-3.95-4.96-5.89-9.15-5.24-.95.15-2.4,1.58-2.42,2.46-.2,7.4-.19,14.81-.02,22.22.02.82,1.4,1.64,2.21,2.38.19.18.67.04,1.02.05,14.6.45,18.03-2.32,20.75-16.75.1-.52.31-1.01.99-1.47v19.33h-40.35c-.02-.31-.04-.63-.06-.94,1.5-.07,3.01-.25,4.51-.2,1.98.07,3-.59,3-2.76-.04-16.32-.03-32.64,0-48.96,0-2.05-.83-3.03-2.89-2.92-.23.01-.46,0-.69,0-10.8-.3-11.93.79-11.94,11.52,0,13.66-.02,27.31-.04,40.97,0,.87-.12,1.73-.25,3.53-10.78-15.57-21.05-30.41-31.33-45.25-.44.18-.87.37-1.31.55-.09,1.19-.25,2.37-.26,3.56-.04,10.3-.04,20.6-.06,30.9,0,5.8,1.01,7.22,6.48,9.09.51.17,1,.39,1.42,1.03h-17.1c-.03-.14-.06-.28-.09-.43.49-.2.96-.43,1.46-.59,5.51-1.84,6.17-2.74,6.18-8.37.02-13.08.05-26.16.06-39.23,0-5.63-1.17-6.89-6.72-7.28-.69-.05-1.38-.09-2.06-.21-.17-.03-.29-.31-.95-1.06,1.89-.14,3.37-.11,4.81-.36,7.03-1.23,11.29,1.71,14.94,7.85,6.2,10.42,13.41,20.24,20.21,30.3.59.87,1.34,1.62,2.01,2.43.39-.16.77-.32,1.16-.48Z"/>
  <path class="cls-1" d="M560.81,232.44c-6.39,3.83-12.33,1.14-12.95-5.57-.33-3.56-.06-7.16-.19-10.74-.26-7.4-3.44-10.5-10.72-10.55q-8.96-.06-8.96,8.94c0,4.51.2,9.03-.06,13.52-.21,3.53,1.03,4.93,4.54,4.48.98-.13,2,.13,3.3.23-2.08,1.72-19.29,1.98-22.48.04,1.47-.1,2.95-.33,4.42-.27,2.19.1,3.13-.73,3.13-3-.05-16.07-.05-32.14,0-48.21,0-2.51-1.14-3.21-3.4-3.11-1.39.07-2.8-.17-4.2-.26-.02-.35-.03-.71-.05-1.06,1.02-.16,2.03-.45,3.05-.45,8.55-.04,17.09-.04,25.64-.01,1.26,0,2.53.18,3.78.39,5.28.9,9.96,2.75,11.23,8.71,1.33,6.27-.19,11.7-5.55,15.65-1.02.75-2.23,1.23-3.24,1.97-.76.56-1.36,1.34-2.03,2.02.72.47,1.39,1.12,2.18,1.37,4.01,1.26,6.14,4.01,6.44,8.11.29,4.03.44,8.07.5,12.11.08,5.39.02,5.39,5.63,5.71ZM527.76,190.43c0,1.27-.02,2.55,0,3.82.23,10.83-1.98,9.19,9.68,9.25,4.42.02,8.36-1.87,9.34-6.26.97-4.35,1.28-9.17.45-13.52-.89-4.66-3.52-5.8-8.5-5.81-2.54,0-5.08.06-7.63.01-2.43-.05-3.58.84-3.4,3.48.2,2.99.05,6.01.05,9.02Z"/>
  <path class="cls-1" d="M565.14,232.67c1.2-.06,2.42-.29,3.59-.15,3.13.36,3.95-1.08,3.93-4.02-.1-15.27-.04-30.53-.05-45.8,0-4.64-.03-4.62-4.81-4.81-.81-.03-1.62-.24-2.37-1.13h39.61v17.51c-.13.04-.26.08-.38.12-.59-2.26-1.14-4.54-1.78-6.79-1.72-6.04-5.5-9.12-11.72-9.45-2.77-.15-5.56-.31-8.3-.05-.88.08-2.3,1.51-2.32,2.35-.17,6.7,0,13.41-.09,20.12-.03,2.39,1.03,2.95,3.15,2.91,4.29-.08,7.25-2.04,8.9-5.96.57-1.36.95-2.81,1.82-4.17v23.28c-.13.03-.27.06-.4.09-.76-2.21-1.36-4.49-2.31-6.62-1.72-3.87-5.9-5.76-9.78-4.44-.62.21-1.34,1.28-1.35,1.96-.08,7.51-.1,15.03.07,22.55.02.79,1.34,1.59,2.12,2.3.19.17.67.03,1.02.04,14.99.32,17.84-2.04,20.7-17.07.08-.4.32-.76,1.35-1.09v7.92c0,3.12.14,6.26-.09,9.36-.07.88-1.23,2.39-1.91,2.4-12.47.15-24.95.11-37.42.09-.39,0-.78-.31-1.17-.48,0-.31,0-.63,0-.94Z"/>
  <path class="cls-1" d="M400.8,289.6c0,5.77.07,11.54-.08,17.31-.02.74-1.19,2.07-1.84,2.07-12.71.1-25.42.05-38.13,0-.19,0-.37-.24-1.44-.99,2.19-.19,3.61-.47,5-.39,2.44.14,3.52-.63,3.51-3.32-.1-15.97-.09-31.93,0-47.9.01-2.57-.91-3.61-3.44-3.45-1.07.07-2.16-.13-3.24-.2-.02-.31-.05-.61-.07-.92.77-.16,1.54-.46,2.31-.46,11.44,0,22.88.04,34.32.06,1.44,0,2.83-.08,2.81,2.04-.05,5.41-.02,10.81-.65,16.3-.34-1.52-.7-3.03-1.02-4.56-1.67-8.16-5.41-11.71-13.68-12.07-12.12-.52-9.46-1.02-9.71,8.77-.11,4.39.07,8.8-.06,13.19-.08,2.61,1,3.43,3.51,3.38,4.98-.11,8.47-2.95,9.69-8.24.17-.73.28-1.47,1.03-2.18v23.82c-.17.06-.33.12-.5.18-.26-1.08-.5-2.16-.77-3.23-1.48-5.91-4.57-8.5-9.78-8.44-2.16.02-3.18.76-3.16,3.03.06,7.06.08,14.12-.01,21.17-.03,2.31.98,3.1,3.14,2.99,1.96-.09,3.93,0,5.89-.07,8.84-.36,13.49-4.71,14.59-13.57.19-1.52.61-3.02.92-4.52.29.06.58.12.88.19Z"/>
  <path class="cls-1" d="M352.03,251.32v18.56c-.15.04-.29.07-.44.11-1.02-2.48-1.91-5.02-3.09-7.41-.91-1.85-2.02-3.66-3.35-5.23-3.62-4.25-8.22-6.3-13.87-5.31-5.51.97-8.37,4.97-9.71,9.8-3.37,12.14-3.66,24.48-.16,36.63,2.9,10.06,13.86,13.06,20.99,5.95,1.32-1.31,2.23-3.55,2.37-5.43.33-4.72-.03-9.49.17-14.22.12-2.94-.99-3.98-3.81-3.72-1.26.12-2.56-.13-3.84-.21.02-.31.03-.63.05-.94h21.42c.03.2.05.41.08.61-.39.18-.76.46-1.16.51q-5.18.66-5.18,5.79c0,6.92,0,13.83,0,20.72-.49.07-.78.21-.91.12-1.76-1.27-3.44-3.46-5.27-3.59-1.52-.11-3.15,2.29-4.85,3.4-7.13,4.63-18.51,2.23-24.08-5.62-7.2-10.15-8.6-21.43-5-33.34,2.06-6.79,5.52-12.52,12.2-15.62,6.74-3.13,13.34-3.15,19.74,1.21.88.6,2.66.36,3.82-.04,1.24-.43,2.24-1.53,3.89-2.72Z"/>
  <path class="cls-1" d="M311.95,176.66c.88-.09,1.75-.27,2.63-.27,10.98,0,21.96.1,32.94-.03,2.78-.03,3.58.83,3.43,3.59-.25,4.56-.07,9.14-.48,13.77-.67-2.18-1.32-4.36-2.01-6.54-1.86-5.85-5.54-8.72-11.71-9.05-2.54-.13-5.09-.06-7.63-.16-2.01-.08-3,.7-2.98,2.81.04,6.6.05,13.19-.02,19.79-.02,2.32,1.15,2.99,3.24,2.99,3.86,0,7.13-2.05,8.72-5.73.66-1.52,1.15-3.12,2.12-4.6v23.5c-.2.04-.4.08-.6.12-.47-1.57-.94-3.14-1.41-4.72-1.48-4.94-4.58-7.19-9.52-6.48-.93.13-2.37,1.58-2.39,2.45-.2,7.17-.09,14.35-.14,21.52-.01,2.11,1,2.87,3,2.83,1.52-.03,3.05.14,4.57.22-.01.33-.02.66-.03.99h-22.81c-.04-.28-.09-.56-.13-.84,1.4-.13,2.8-.42,4.19-.36,2.42.11,3.61-.65,3.59-3.33-.07-16.08-.06-32.17,0-48.25,0-2.24-.84-3.21-3.06-3.07-1.18.07-2.36.01-3.54.01.02-.39.03-.78.05-1.18Z"/>
  <path class="cls-1" d="M443.88,233.75h-22.46c-.03-.31-.05-.61-.08-.92,1.38-.11,2.76-.36,4.13-.31,2.19.07,3.15-.78,3.14-3.04-.04-16.2-.04-32.41.01-48.61,0-2.24-.85-3.04-3.07-3.08-8.1-.12-12.26,3.65-13.59,12.52-.12.78-.12,1.58-.18,2.37-.29.02-.58.03-.86.05,0-2.6-.02-5.19,0-7.79.07-8.48.08-8.52,8.59-8.55,10.17-.03,20.35.08,30.52-.05,2.75-.03,3.64.84,3.53,3.59-.19,5.18-.06,10.38-.41,15.63-.44-2.67-.79-5.36-1.34-8.01-1.28-6.16-6-9.84-11.99-9.7-2.18.05-3.09.71-3.08,3.03.08,16.09.1,32.18.03,48.26-.01,2.64,1.01,3.56,3.5,3.35,1.21-.1,2.43-.02,3.64-.02-.02.42-.03.84-.05,1.26Z"/>
  <path class="cls-1" d="M458.02,176.71h22.05c.05.32.1.65.14.97-1.3.16-2.61.48-3.9.44-2.28-.08-3.42.69-3.4,3.16.1,12.95-.07,25.91.23,38.86.18,7.64,3.86,11.75,10.05,12.38,9.21.93,14.14-1.79,16.07-9.36.7-2.75.73-5.73.75-8.6.09-10.64-.1-21.29.12-31.92.07-3.55-1.03-4.92-4.53-4.45-.82.11-1.7-.21-2.83-.38,2.14-1.81,13.4-1.96,16.88-.05-1.9.21-3.08.52-4.23.42-2.87-.24-3.86.93-3.83,3.8.11,10.76.05,21.51,0,32.27-.01,2.54-.15,5.09-.48,7.6-.87,6.63-4.9,11.35-11.53,11.96-4.7.43-9.73-.05-14.28-1.32-6.76-1.88-9.96-7.1-9.98-14.16-.04-11.57-.09-23.13-.12-34.7-.01-5.18,0-5.17-5.17-5.5-.73-.05-1.45-.33-2.17-.51.05-.31.1-.61.15-.92Z"/>
  <path class="cls-1" d="M355.65,176.88h21.96c.02.32.04.63.05.95-.95.11-1.91.4-2.83.3-3.13-.36-4.28.77-4.23,4.06.18,12.85.04,25.7.17,38.54.06,5.65,2.85,9.7,7.21,11.2,6.02,2.07,13.4.83,16.23-3.47,1.75-2.67,3.12-6.12,3.22-9.26.37-12.61.14-25.23.24-37.84.02-2.5-1.01-3.29-3.32-3.16-1.16.07-2.34-.17-3.5-.27.02-.34.04-.69.06-1.03h15.37c.02.31.05.62.07.94-.93.13-1.89.47-2.8.36-3.5-.44-4.24,1.26-4.23,4.44.05,12.5,0,25-.29,37.49-.19,7.89-4.97,13.24-12.78,13.87-4.27.34-8.81-.18-12.95-1.33-6.88-1.91-10.08-6.41-10.21-13.58-.21-11.8-.15-23.61-.19-35.42-.02-5.18-.01-5.17-5.18-5.53-.72-.05-1.43-.36-2.14-.54.03-.24.05-.47.08-.71Z"/>
  <path class="cls-1" d="M657.08,308.81h-21.75c-.04-.29-.08-.59-.12-.88,1.31-.14,2.63-.44,3.93-.37,2.34.12,3.35-.74,3.34-3.18-.06-16.09-.05-32.17,0-48.26,0-2.42-.98-3.36-3.34-3.2-1.29.09-2.6-.09-3.9-.15.01-.33.02-.67.04-1h21.79c.05.23.1.45.15.68-1.07.17-2.16.55-3.21.46-2.8-.25-3.83.68-3.81,3.67.14,15.62.14,31.25,0,46.87-.03,3.14.83,4.55,4.09,4.11.93-.13,1.91.11,2.87.19-.03.36-.05.71-.08,1.07Z"/>
  <path class="cls-1" d="M365.96,363.59c-3.23,1.03-5.24.48-6.46-3.01-2.28-6.53-4.96-12.93-7.56-19.35-.8-1.99-1.87-3.86-3.67-5.69-.18,1.63-.51,3.26-.52,4.89-.06,6.94.04,13.89-.1,20.83-.02.92-1.05,1.82-1.62,2.72-.54-.92-1.55-1.84-1.56-2.77-.11-10.3-.11-20.6,0-30.9.01-.98.75-2.56,1.49-2.79,1.62-.5,3.29-.4,4.14,1.87,3,8,6.16,15.94,9.33,23.88.52,1.3,1.37,2.48,2.07,3.71.39-.13.79-.27,1.18-.4.09-1.2.26-2.4.27-3.6.02-7.52-.05-15.05.09-22.57.02-1.02,1.09-2.02,1.67-3.03.5.97,1.41,1.94,1.42,2.92.11,10.3.07,20.6.06,30.9,0,.79-.15,1.57-.23,2.39Z"/>
  <path class="cls-1" d="M228.81,363.56c-3.56,1.05-5.45.44-6.64-3.11-2.47-7.33-5.49-14.47-8.36-21.66-.48-1.21-1.34-2.27-2.91-3.27-.19,1.26-.54,2.51-.55,3.77-.05,7.41-.07,14.81,0,22.22.02,2.26-.73,3.01-3.22,2.02,0-5.65,0-11.41,0-17.18,0-5.21-.08-10.42.06-15.62.03-1.13.63-2.95,1.39-3.21,1.75-.59,3.49-.3,4.36,2.06,2.77,7.47,5.72,14.87,8.67,22.28.71,1.78,1.67,3.45,2.52,5.17.32-.04.64-.07.95-.11.17-1.37.49-2.74.5-4.11.05-7.52-.03-15.05.09-22.57.02-.96.95-1.91,1.46-2.87.55.92,1.58,1.83,1.59,2.76.11,11.09.07,22.18.07,33.43Z"/>
  <path class="cls-1" d="M611.43,335.72c0,2.15,0,4.3,0,6.45,0,6.25.08,12.49-.07,18.74-.03,1.03-1.05,2.04-1.62,3.07-.59-1-1.67-1.99-1.69-3-.12-10.18-.12-20.36,0-30.54.01-1.03.9-2.67,1.71-2.93,1.57-.48,3.19-.42,4.07,1.92,3.14,8.43,6.55,16.77,9.93,25.12.33.82,1.18,1.42,1.8,2.13.37-.87,1.05-1.74,1.06-2.62.08-7.75.02-15.5.07-23.25,0-1.32-.81-3.48,1.65-3.25.61.06,1.46,2.19,1.48,3.38.12,9.83.12,19.66,0,29.49-.01,1.19-.76,3.12-1.59,3.39-1.82.58-3.64.41-4.59-2.21-2.69-7.49-5.71-14.87-8.66-22.26-.57-1.41-1.45-2.7-2.19-4.04-.46.13-.91.27-1.37.4Z"/>
  <path class="cls-1" d="M311.2,363.75c-2.28.63-3.6-.02-3.74-2.51-.16-2.77-.27-5.54-.57-8.29-.54-5-8.06-8.48-12.09-5.51-.7.51-.9,2.03-.92,3.09-.1,4.37-.04,8.73-.04,13.06-2.48.83-3.48.44-3.46-2.15.09-10.75.02-21.5.02-32.25,0-.44.15-.88.26-1.47,4.77,0,9.48-.28,14.14.1,2.95.24,5.08,2.47,5.73,5.37.82,3.68.94,7.56-2.19,10.33-1.99,1.76-2.19,2.49,0,4.4,1.41,1.23,1.96,3.81,2.26,5.88.47,3.17.41,6.43.6,9.97ZM293.85,337.19c0,7.72.59,8.24,7.82,6.91,3.87-.72,5.97-3.85,5.51-8.22-.44-4.28-4.1-6.32-10.4-6.01-4.71.23-2.31,3.8-2.91,5.95-.12.43-.02.92-.02,1.38Z"/>
  <path class="cls-1" d="M487.78,346.48c-.62,3.41-.95,7.36-2.12,11.05-1.66,5.24-5.51,7.59-10.5,7.22-4.95-.37-8.33-3.41-9.55-8.6-1.6-6.75-1.63-13.51-.19-20.29,1.25-5.91,5.01-9.27,10.38-9.31,5.45-.04,9.32,3.17,10.53,9.1.69,3.37.94,6.84,1.46,10.83ZM484.13,345.46c-.56-3.59-.91-7.26-1.74-10.82-.85-3.64-3.32-5.37-6.67-5.31-3.19.06-6.21,2.13-6.41,5.63-.41,7.07-.41,14.2-.02,21.27.19,3.48,3.24,5.72,6.3,5.89,3.2.17,6.02-1.87,6.88-5.63.82-3.56,1.11-7.25,1.66-11.04Z"/>
  <path class="cls-1" d="M602.84,345.61c-.92,4.44-1.54,8.65-2.71,12.7-1.3,4.48-4.95,6.21-9.32,6.42-4.31.21-8.12-2.05-9.58-6.11-3.12-8.68-3.14-17.51.1-26.16,1.6-4.28,5.27-5.99,9.7-5.89,4.19.09,7.58,1.97,8.88,5.99,1.36,4.22,1.98,8.68,2.93,13.05ZM598.78,345.72c-.47-3.62-.65-7.21-1.45-10.65-.98-4.23-3.37-5.97-7-5.84-3.28.11-6.16,2.17-6.43,6.11-.47,6.95-.39,13.99.06,20.95.21,3.3,2.66,5.6,6.3,5.86,3.3.23,6.07-1.69,6.97-5.5.85-3.55,1.05-7.26,1.54-10.92Z"/>
  <path class="cls-1" d="M262.39,342.42c0-4.28-.07-8.56.07-12.84.02-.74.94-1.45,1.45-2.18.61.75,1.75,1.5,1.76,2.26.13,7.4.04,14.81.09,22.21.01,1.72.12,3.49.51,5.15.88,3.71,3.24,5.34,7.1,5.17,3.71-.17,6.08-2.15,6.32-6.05.32-4.96.18-9.94.21-14.91.02-3.82-.12-7.64.09-11.45.05-.83,1.27-1.59,1.95-2.39.53.82,1.5,1.63,1.51,2.45.11,8.1.17,16.2.03,24.29-.11,6.56-4.43,10.69-10.76,10.64-6.31-.05-9.91-3.59-10.15-10.21-.15-4.04-.03-8.09-.03-12.14-.05,0-.1,0-.14,0Z"/>
  <path class="cls-1" d="M105.49,345.77c-.96,4.42-1.61,8.75-2.89,12.88-1.33,4.28-4.93,5.99-9.17,6.08-4.45.09-8.09-1.89-9.52-6.15-2.92-8.66-2.92-17.51.15-26.15,1.47-4.14,5.05-5.86,9.34-5.86,4.18,0,7.69,1.77,9.04,5.74,1.46,4.29,2.05,8.88,3.05,13.46ZM101.61,345.35c-.46-3.41-.61-6.91-1.46-10.23-1.09-4.28-3.5-6.05-6.97-5.97-3.45.08-6.55,2.41-6.86,6.59-.49,6.64-.48,13.37,0,20.01.29,4,3.29,6.27,6.64,6.43,3.59.18,6.24-1.77,7.26-6.11.81-3.46.95-7.07,1.41-10.72Z"/>
  <path class="cls-1" d="M155.46,363.48c-2.33,1.08-3.36.36-3.98-1.81-2.3-8.1-2.35-7.91-10.57-8.17-3.42-.1-5.24.88-5.64,4.34-.14,1.25-.81,2.43-.97,3.68-.29,2.35-1.52,2.83-3.91,2.14,1.27-4.75,2.46-9.4,3.76-14.01,1.87-6.66,3.74-13.33,5.83-19.93.31-.98,1.78-2.16,2.76-2.2,1.16-.05,2.43.95,3.53,1.68.38.25.43,1.04.58,1.59,2.87,10.89,5.74,21.79,8.61,32.69ZM137.19,350.55h11.35c-1.6-6.18-3.09-11.92-4.57-17.67-.5-.03-1-.07-1.5-.1-1.69,5.68-3.37,11.36-5.28,17.77Z"/>
  <path class="cls-1" d="M339.9,363.46c-2.28,1.08-3.31.45-3.95-1.76-2.34-8.14-2.4-8.02-10.91-8.16-3.03-.05-4.9.65-5.22,3.96-.13,1.36-.72,2.68-1,4.03-.44,2.13-1.56,2.97-4.09,2.07,1.83-6.4,3.64-12.79,5.47-19.17,1.31-4.55,2.78-9.05,3.91-13.64.53-2.14.99-3.45,3.67-3.51,2.93-.06,3.14,1.95,3.61,3.73,2.48,9.25,4.84,18.54,7.24,27.81.4,1.55.83,3.08,1.25,4.65ZM333.15,350.82c-1.72-6.4-3.21-11.91-4.74-17.62-1.04.51-1.55.6-1.62.82-1.58,5.02-3.17,10.04-4.58,15.1-.11.39.99,1.58,1.57,1.62,2.82.17,5.67.08,9.37.08Z"/>
  <path class="cls-1" d="M436.94,353.66h3.11c1.53,6.63,3.05,8.35,7.41,8.53,3.6.14,6.46-1.74,7.53-4.95,1.05-3.17-.02-6.63-3.08-8.46-2.15-1.28-4.62-2.07-6.98-2.97-3.76-1.42-6.9-3.38-7.21-7.91-.26-3.86.2-7.59,3.91-9.71,4.09-2.34,8.53-2.49,12.51.07,1.57,1.01,2.49,3.2,3.37,5.01.27.54-.59,1.64-.93,2.48-.78-.5-1.7-.87-2.3-1.53-1.32-1.46-2.18-3.62-3.77-4.51-2.95-1.64-7.05-.14-8.5,2.51-1.63,2.98-.86,7.63,1.97,9.36,2.33,1.42,5.01,2.3,7.59,3.27,5.67,2.13,7.77,5.07,7.2,10.33-.62,5.77-3.32,8.84-9.24,9.39-8.61.79-11.92-2.39-12.59-10.9Z"/>
  <path class="cls-1" d="M256.75,335.45c-2.16.19-3.04.26-3.91.34-.26-.39-.59-.66-.61-.95-.31-3.57-2.29-5.44-5.79-5.69-3.48-.25-5.94,1.35-7.01,4.44-1.06,3.06-.08,6.5,2.81,8.18,2.27,1.32,4.79,2.28,7.3,3.1,4.39,1.43,7.31,4.09,7.42,8.88.09,4.15-1.25,7.89-5.38,9.69-4.6,2.01-9.43,2.24-13.38-1.18-1.61-1.4-2.14-4.16-2.85-6.4-.19-.6.74-1.55,1.16-2.35.69.68,1.79,1.26,1.99,2.07,1.19,4.83,3.11,6.64,7.43,6.61,3.46-.02,6.09-1.92,7.05-5.09.96-3.17,0-6.47-2.92-8.2-2.26-1.34-4.8-2.23-7.29-3.14-4.14-1.51-7.08-4.01-7.26-8.69-.15-3.78.9-7.23,4.5-9.11,4.05-2.11,8.47-2.33,12.18.35,1.91,1.38,2.78,4.22,4.57,7.13Z"/>
  <path class="cls-1" d="M520.93,342.52c0,4.05-.07,8.09.02,12.14.1,4.9,2.43,7.45,6.71,7.54,4.36.09,7.02-2.25,7.17-7.1.25-7.97.11-15.95.13-23.93,0-.69-.23-1.49.05-2.05.33-.68,1.08-1.16,1.64-1.73.53.6,1.52,1.19,1.53,1.79.03,9.01.19,18.04-.24,27.03-.25,5.29-4.47,8.47-10,8.55-5.69.09-9.4-2.42-9.94-7.92-.64-6.53-.4-13.15-.52-19.72-.04-2.31-.17-4.64.06-6.93.1-.98,1.02-1.87,1.57-2.8.6.88,1.69,1.74,1.73,2.64.19,4.15.08,8.32.08,12.48h.01Z"/>
  <path class="cls-1" d="M636.37,353.75c2.39-.83,2.99.34,3.34,2.25.82,4.44,2.76,6.1,6.92,6.19,3.78.09,6.36-1.85,7.37-5.54.96-3.49-.53-6.78-4.18-8.56-2.38-1.16-4.97-1.87-7.41-2.92-4.38-1.89-5.91-4.43-5.75-9.25.16-4.58,2.04-7.3,6.06-8.73,4.14-1.48,9.72-.49,11.92,2.29.76.96,1.39,2.2,1.58,3.39.14.88-.53,1.89-.84,2.84-.76-.62-1.96-1.11-2.2-1.89-.9-2.91-2.64-4.58-5.7-4.66-3.1-.08-5.77.74-6.94,4-1.2,3.31-.26,6.85,2.67,8.56,2.37,1.38,5.04,2.25,7.61,3.27,5.37,2.12,7.31,4.96,6.9,10.22-.42,5.29-3.11,8.19-8.64,9.3-7.96,1.59-13.08-2.65-12.72-10.76Z"/>
  <path class="cls-1" d="M401.12,345.38c0-5.09.06-10.19-.03-15.28-.03-1.83.36-2.81,2.45-2.77,4.51.09,9.02-.04,13.52.09.76.02,1.49.93,2.24,1.42-.73.39-1.44,1.09-2.19,1.13-3.12.13-6.24.12-9.36.04-2.14-.06-3.28.68-3.21,2.98.07,2.54.06,5.09,0,7.64-.05,2.06.89,2.95,2.93,2.9,2.43-.06,4.87-.16,7.28.05,1.28.11,2.51.84,3.76,1.3-1.31.4-2.6,1.04-3.93,1.16-2.3.19-4.62.12-6.93.03-2.21-.08-3.18.84-3.12,3.07.08,3.01.09,6.02,0,9.03-.07,2.32,1.04,3.02,3.19,2.96,3.23-.1,6.48-.13,9.71.05.85.05,1.66.98,2.48,1.51-.79.45-1.57,1.26-2.37,1.28-4.62.12-9.25,0-13.87.09-1.99.04-2.61-.78-2.58-2.68.08-5.32.03-10.65.03-15.97Z"/>
  <path class="cls-1" d="M395.08,352.77c-.5,9.11-6.14,13.69-13.83,11.44-3.39-.99-5.6-3.26-6.49-6.62-2.11-7.99-2.09-16.05.12-24,1.35-4.84,5.73-7.47,11.02-7.02,5,.42,8.27,3.23,8.79,7.78.09.8-.56,1.7-.87,2.55-.86-.55-2.17-.9-2.49-1.67-2.11-5.02-3.75-6.46-7.48-6.04-3.63.4-6.22,3.36-6.45,8.24-.27,5.63-.48,11.33.15,16.9.29,2.52,2.12,5.61,4.21,7.02,4.18,2.83,8.49-.21,9.9-6.38q.6-2.62,3.42-2.2Z"/>
  <path class="cls-1" d="M118.68,347.21c0-4.39-.13-8.78.05-13.16.12-2.94-.81-4.38-3.92-4.05-1.25.14-2.56.14-3.79-.06-.64-.1-1.19-.78-1.79-1.19.56-.45,1.11-1.29,1.67-1.3,6.34-.09,12.69-.1,19.03,0,.52,0,1.03.92,1.54,1.41-.51.38-.97.93-1.54,1.08-.76.2-1.6.08-2.41.08q-5.56.02-5.56,5.74c0,8.43.06,16.86-.08,25.29-.02.98-1.13,1.95-1.73,2.92-.49-.97-1.37-1.92-1.4-2.91-.15-4.61-.07-9.24-.06-13.85Z"/>
  <path class="cls-1" d="M64.65,346.99c0-4.51-.08-9.03.03-13.54.06-2.54-.92-3.64-3.47-3.44-1.38.11-2.79.13-4.15-.06-.65-.09-1.21-.77-1.82-1.18.55-.46,1.09-1.32,1.65-1.32,6.36-.1,12.71-.09,19.07-.01.48,0,.96.74,1.44,1.14-.52.47-1.01,1-1.59,1.39-.24.16-.68.04-1.02.05q-6.75.3-6.75,6.98c0,7.99.06,15.97-.07,23.96-.02,1.01-1.07,2.01-1.65,3.01-.56-1.03-1.55-2.05-1.59-3.1-.18-4.62-.08-9.26-.08-13.89Z"/>
  <path class="cls-1" d="M555.42,363.56c-2.96,1.13-3.21-.33-3.19-2.42.06-8.56.03-17.12.03-25.68q0-5.41-5.25-5.43c-.58,0-1.21.15-1.72-.04-.85-.31-1.63-.83-2.44-1.26.79-.46,1.57-1.29,2.36-1.31,5.78-.11,11.55-.06,17.33-.06.35,0,.75-.08,1.03.07.55.3,1.03.73,1.55,1.1-.52.48-.97,1.24-1.57,1.39-.98.24-2.06.11-3.1.11q-5.05.02-5.03,4.9c0,8.56,0,17.12,0,25.68,0,1.02,0,2.04,0,2.95Z"/>
  <path class="cls-1" d="M159.96,364c0-5.32,0-10.15,0-14.97,0-6.46-.07-12.93.07-19.39.02-.76,1.13-1.5,1.74-2.24.48.75,1.37,1.49,1.38,2.25.09,9.12.17,18.24,0,27.35-.06,3.19.99,4.38,4.18,4.14,2.98-.22,6-.15,8.99.03.73.04,1.42.99,2.12,1.52-.68.44-1.35,1.25-2.04,1.26-5.29.11-10.58.06-16.43.06Z"/>
  <path class="cls-1" d="M494.5,364.01c0-8.07,0-15.67,0-23.28,0-3.47,0-6.94-.02-10.41,0-1.35-.46-3.17,1.74-2.81.67.11,1.55,1.71,1.56,2.64.11,9.14.19,18.28,0,27.41-.06,2.79.73,3.74,3.49,3.57,3.11-.19,6.24-.13,9.35.03.77.04,1.49.9,2.24,1.39-.74.49-1.48,1.38-2.23,1.39-5.19.12-10.38.06-16.12.06Z"/>
  <path class="cls-1" d="M195.88,363.77c0-11.7-.03-23.01.07-34.31,0-.7.97-1.89,1.56-1.94.66-.06,2.02.93,2.02,1.48.12,11.52.09,23.05.09,34.78h-3.75Z"/>
  <path class="cls-1" d="M573.22,345.51c0,5.32.06,10.63-.07,15.95-.02.84-.97,1.66-1.49,2.5-.65-.84-1.85-1.66-1.86-2.51-.13-10.63-.12-21.26-.02-31.89,0-.72.97-1.43,1.49-2.14.65.72,1.84,1.42,1.87,2.15.16,5.31.09,10.63.08,15.94Z"/>
  <path class="cls-1" d="M64.69,261.82c.85-.95,1.54-2.41,2.59-2.76,3.8-1.27,7.73-2.16,11.79-3.25.67,2.2.75,3.59-1.94,4.14-3.82.79-7.56,1.96-11.34,2.97-.37-.37-.73-.74-1.1-1.11Z"/>
  <path class="cls-1" d="M64.84,272.1c.59-.98.98-2.56,1.8-2.83,4.03-1.31,8.17-2.26,12.28-3.35.3.3.61.61.91.91-.78,1.02-1.37,2.61-2.38,2.95-3.81,1.27-7.76,2.14-11.66,3.16-.32-.28-.64-.56-.95-.84Z"/>
  <path class="cls-1" d="M64.84,282.17c.66-1,1.13-2.6,2.03-2.89,3.92-1.3,7.97-2.23,12.82-2.68-.57,1.07-.92,2.81-1.76,3.09-4.01,1.33-8.16,2.26-12.25,3.34-.28-.29-.56-.57-.84-.86Z"/>
  <path class="cls-1" d="M86.1,266c3.88,1.03,7.81,1.91,11.6,3.19.84.28,1.22,1.94,1.81,2.96-.27.23-.54.45-.82.68-3.78-.95-7.61-1.74-11.31-2.95-.97-.32-1.5-1.95-2.24-2.98l.95-.89Z"/>
  <path class="cls-1" d="M98.52,262.82c-3.76-1-7.57-1.86-11.26-3.08-.9-.3-1.4-1.78-2.09-2.72.29-.33.57-.67.86-1,3.96,1.01,7.96,1.89,11.84,3.14.79.26,1.14,1.91,1.69,2.92-.35.25-.7.49-1.05.74Z"/>
  <path class="cls-1" d="M86.06,276.08c3.88,1.02,7.79,1.91,11.6,3.15.85.28,1.3,1.77,1.94,2.7-.28.32-.56.64-.84.96-3.96-1.02-7.96-1.93-11.86-3.16-.79-.25-1.19-1.72-1.77-2.63.31-.34.62-.68.93-1.01Z"/>
</svg>