<svg width="2308" height="454" viewBox="0 0 2308 454" fill="none" xmlns="http://www.w3.org/2000/svg">
<g clip-path="url(#clip0_5772_16108)">
<path d="M858.398 29.8389C859.837 29.8343 861.275 29.8293 862.714 29.8239C866.601 29.8109 870.488 29.8043 874.375 29.7999C876.813 29.7969 879.251 29.7928 881.69 29.7884C889.347 29.7747 897.004 29.765 904.661 29.7612C913.447 29.7567 922.232 29.7392 931.018 29.7102C937.843 29.6884 944.668 29.6785 951.493 29.6771C955.553 29.6761 959.612 29.6704 963.672 29.6523C1003.18 29.4865 1037.56 35.3288 1066.93 63.8438C1088.91 85.9887 1099.28 115.891 1099.25 146.724C1098.86 177.561 1085.54 206.158 1063.73 227.684C1048.67 241.987 1030.5 249.876 1011.06 256.438C1009.35 257.026 1007.64 257.615 1005.92 258.206C1002.25 259.471 998.571 260.73 994.892 261.985C985.432 265.216 975.99 268.499 966.545 271.776C963.474 272.841 960.401 273.902 957.329 274.963C952.515 276.625 947.707 278.303 942.902 279.989C939.88 281.042 936.853 282.076 933.826 283.11C931.834 283.805 929.843 284.5 927.852 285.195C926.935 285.504 926.017 285.812 925.072 286.13C919.973 287.934 916.443 289.619 913 294C911.857 297.932 911.686 300.116 913.062 303.982C915.454 307.706 918.108 309.101 922.02 310.859C922.726 311.194 923.432 311.528 924.159 311.873C926.43 312.939 928.712 313.973 931 315C931.733 315.332 932.465 315.663 933.22 316.005C937.847 318.094 942.495 320.132 947.153 322.151C951.644 324.098 956.128 326.06 960.614 328.02C961.548 328.427 962.482 328.835 963.444 329.255C973.776 333.767 984.076 338.351 994.375 342.938C998.143 344.615 1001.91 346.292 1005.68 347.969C1006.61 348.384 1007.55 348.799 1008.51 349.227C1015.13 352.171 1021.75 355.105 1028.38 358.031C1029.32 358.445 1030.26 358.859 1031.22 359.286C1035.63 361.231 1040.04 363.176 1044.45 365.119C1059.33 371.683 1074.16 378.347 1089 385C1089 407.77 1089 430.54 1089 454C1082.86 451.954 1077.21 449.862 1071.42 447.113C1070.62 446.74 1069.82 446.366 1069 445.981C1067.28 445.179 1065.57 444.376 1063.86 443.57C1059.26 441.406 1054.65 439.259 1050.04 437.113C1049.11 436.678 1048.17 436.243 1047.21 435.794C1038.52 431.757 1029.77 427.861 1021 424C1007.95 418.249 994.99 412.331 982.063 406.313C970.449 400.906 958.826 395.529 947.125 390.313C937.059 385.823 927.007 381.302 916.978 376.731C915.486 376.051 913.995 375.373 912.503 374.696C904.752 371.178 897.035 367.593 889.391 363.848C888.75 363.54 888.11 363.232 887.45 362.915C871.086 354.794 859.867 340.016 853.684 323.082C847.473 304.177 849.008 284.26 857.258 266.262C860.014 261.102 863.355 256.559 867 252C867.743 250.969 868.485 249.938 869.25 248.875C881.665 235.897 898.05 229.693 914.607 223.834C917.399 222.845 920.187 221.844 922.974 220.84C927.074 219.363 931.176 217.889 935.278 216.417C945.723 212.665 956.157 208.884 966.58 205.071C969.699 203.93 972.819 202.794 975.942 201.666C1007.98 191.052 1007.98 191.052 1030 167C1035.84 153.526 1036.83 140.454 1032.32 126.324C1030.21 121.019 1027.47 116.521 1024 112C1023.17 110.923 1023.17 110.923 1022.33 109.824C1018.25 105.181 1013.51 102.397 1008.06 99.6251C1007.41 99.291 1006.75 98.9569 1006.07 98.6126C996.53 94.0329 987.317 93.7023 976.843 93.7095C975.431 93.7035 974.019 93.6967 972.607 93.6892C968.794 93.6716 964.982 93.6668 961.17 93.6656C958.783 93.6641 956.396 93.6599 954.008 93.6546C945.664 93.6361 937.319 93.6279 928.975 93.6295C921.222 93.6307 913.469 93.6096 905.716 93.578C899.037 93.5518 892.358 93.5411 885.679 93.5424C881.7 93.5429 877.721 93.5373 873.742 93.516C869.997 93.4965 866.253 93.4966 862.508 93.5111C860.496 93.5141 858.483 93.4975 856.471 93.4802C845.741 93.5538 836.587 95.4721 828.653 103.082C820.976 111.993 820.704 123.02 820.722 134.224C820.717 135.564 820.711 136.903 820.704 138.242C820.689 141.907 820.685 145.571 820.684 149.236C820.68 153.194 820.665 157.151 820.651 161.109C820.629 167.961 820.614 174.812 820.604 181.664C820.589 191.571 820.564 201.477 820.535 211.384C820.49 227.457 820.453 243.531 820.422 259.604C820.392 275.216 820.358 290.827 820.318 306.439C820.314 307.883 820.314 307.883 820.31 309.356C820.298 314.186 820.285 319.016 820.273 323.845C820.169 363.897 820.082 403.948 820 444C799.21 444 778.42 444 757 444C756.956 402.852 756.919 361.705 756.898 320.557C756.896 315.694 756.893 310.832 756.89 305.969C756.89 305.001 756.889 304.033 756.889 303.036C756.88 287.381 756.864 271.726 756.846 256.071C756.827 239.996 756.816 223.922 756.812 207.847C756.809 197.936 756.801 188.024 756.785 178.113C756.774 171.308 756.771 164.503 756.773 157.697C756.775 153.777 756.773 149.856 756.762 145.935C756.752 142.335 756.752 138.735 756.759 135.136C756.76 133.238 756.751 131.34 756.742 129.443C756.839 101.308 765.431 76.6758 785.125 56.3751C805.227 36.44 830.708 29.8599 858.398 29.8389Z" fill="white"/>
<path d="M2029.17 29.8798C2030.04 29.879 2030.91 29.8781 2031.8 29.8772C2034.67 29.8756 2037.54 29.8811 2040.41 29.8866C2042.48 29.8868 2044.55 29.8867 2046.62 29.8861C2052.22 29.8858 2057.82 29.8917 2063.42 29.8987C2069.28 29.905 2075.14 29.9055 2081 29.9067C2092.08 29.9098 2103.17 29.918 2114.25 29.9281C2126.87 29.9393 2139.5 29.9448 2152.12 29.9498C2178.08 29.9602 2204.04 29.9785 2230 30.0001C2230 50.7901 2230 71.5801 2230 93.0001C2223.76 93.0147 2217.52 93.0293 2211.1 93.0443C2190.48 93.0946 2169.87 93.1611 2149.26 93.2358C2136.77 93.2807 2124.27 93.3202 2111.77 93.3465C2100.88 93.3695 2089.98 93.403 2079.09 93.4488C2073.32 93.4727 2067.56 93.4914 2061.79 93.4977C2056.36 93.5038 2050.92 93.5238 2045.49 93.5544C2043.5 93.5631 2041.51 93.5669 2039.52 93.5651C2019.94 93.5531 2002.8 96.4555 1988.11 110.688C1977.32 122.497 1972.42 136.867 1972.76 152.715C1973.85 167.569 1980.75 182.17 1992 192C2006.01 202.357 2019.69 205.15 2036.7 205.142C2037.85 205.145 2039 205.149 2040.18 205.152C2042.67 205.16 2045.16 205.165 2047.64 205.169C2051.6 205.176 2055.55 205.191 2059.51 205.21C2060.87 205.216 2062.23 205.223 2063.59 205.229C2064.61 205.234 2064.61 205.234 2065.66 205.239C2074.85 205.28 2084.04 205.314 2093.23 205.326C2099.45 205.334 2105.67 205.357 2111.89 205.395C2115.17 205.415 2118.44 205.425 2121.72 205.423C2140.44 205.41 2158.87 206.176 2176.31 213.688C2177.13 214.03 2177.95 214.373 2178.8 214.725C2192.17 220.482 2203.28 228.218 2214 238C2214.73 238.643 2215.45 239.287 2216.2 239.949C2238.1 260.426 2249.66 290.651 2251.16 320.141C2252 353.772 2239.73 384.898 2216.75 409.344C2199.96 425.543 2178.96 437.432 2156 442C2155.18 442.168 2154.35 442.337 2153.51 442.51C2143 444.393 2132.61 444.267 2121.97 444.227C2119.87 444.227 2117.77 444.227 2115.67 444.228C2110 444.229 2104.34 444.217 2098.67 444.203C2092.74 444.19 2086.8 444.189 2080.87 444.187C2069.64 444.181 2058.42 444.164 2047.2 444.144C2034.41 444.122 2021.63 444.111 2008.85 444.101C1982.56 444.08 1956.28 444.043 1930 444C1930 423.21 1930 402.42 1930 381C1939.38 380.986 1939.38 380.986 1948.95 380.972C1969.62 380.938 1990.3 380.883 2010.97 380.816C2023.51 380.776 2036.04 380.744 2048.57 380.729C2059.5 380.716 2070.43 380.689 2081.36 380.645C2087.14 380.623 2092.93 380.607 2098.71 380.608C2104.16 380.609 2109.61 380.591 2115.07 380.559C2117.06 380.55 2119.05 380.549 2121.04 380.554C2141.07 380.603 2156.66 377.511 2171.75 363.344C2181.69 353.002 2186.82 338.904 2187.31 324.688C2186.93 308.585 2180.54 295.063 2169 284C2157.66 273.652 2144.95 269.698 2129.85 269.713C2128.76 269.706 2127.67 269.699 2126.55 269.692C2124.19 269.679 2121.83 269.67 2119.47 269.665C2115.71 269.656 2111.96 269.636 2108.21 269.612C2100.22 269.564 2092.24 269.531 2084.25 269.5C2075.03 269.464 2065.81 269.422 2056.59 269.364C2052.92 269.344 2049.26 269.336 2045.59 269.328C2006.24 269.151 1971.67 261.523 1942.81 233.25C1925.55 215.796 1913.37 192.476 1910 168C1909.89 167.278 1909.78 166.556 1909.67 165.813C1905.84 135.59 1912.94 103.252 1931.39 78.7188C1933.53 76.0739 1935.73 73.5289 1938 71.0001C1938.57 70.2988 1939.14 69.5976 1939.73 68.8751C1944.48 63.094 1950.08 58.5498 1956 54.0001C1956.78 53.3917 1957.56 52.7832 1958.37 52.1563C1978.71 37.0857 2004.05 29.787 2029.17 29.8798Z" fill="white"/>
<path d="M511.43 29.773C513.442 29.7735 515.454 29.7732 517.466 29.7721C522.882 29.7715 528.298 29.7832 533.715 29.7972C539.392 29.8098 545.07 29.8109 550.747 29.8133C561.478 29.8195 572.208 29.8359 582.939 29.856C595.164 29.8784 607.389 29.8894 619.614 29.8994C644.743 29.9202 669.871 29.9569 695 30C695 50.79 695 71.58 695 93C688.949 93.0094 682.898 93.0187 676.664 93.0284C656.663 93.0621 636.662 93.1175 616.661 93.1839C604.536 93.2237 592.41 93.2561 580.285 93.271C569.712 93.2841 559.14 93.3111 548.568 93.3546C542.973 93.3772 537.379 93.3929 531.784 93.3919C526.511 93.3912 521.237 93.4092 515.964 93.4412C514.036 93.4497 512.108 93.4515 510.18 93.4458C494.433 93.406 481.132 94.7866 469 106C446.948 131.085 458.268 184.57 458 206C522.68 206 587.36 206 654 206C654 226.46 654 246.92 654 268C589.32 268 524.64 268 458 268C452.221 317.987 452.221 317.987 470 369C478.911 377.118 488.421 380.143 500.308 380.158C501.558 380.166 501.558 380.166 502.833 380.173C505.623 380.189 508.413 380.197 511.203 380.205C513.203 380.215 515.204 380.225 517.205 380.235C522.636 380.262 528.067 380.283 533.499 380.303C539.175 380.325 544.851 380.353 550.527 380.379C561.276 380.429 572.024 380.474 582.773 380.517C595.01 380.567 607.247 380.622 619.484 380.677C644.656 380.791 669.828 380.897 695 381C695 401.79 695 422.58 695 444C668.304 444.068 641.609 444.123 614.913 444.155C602.516 444.171 590.119 444.192 577.723 444.226C566.912 444.256 556.101 444.276 545.29 444.282C539.571 444.286 533.852 444.295 528.133 444.317C522.738 444.338 517.343 444.344 511.948 444.339C509.98 444.34 508.012 444.346 506.043 444.358C490.686 444.444 475.718 443.453 461.25 437.813C460.461 437.512 459.671 437.212 458.858 436.902C434.22 427.163 413.876 407.089 403.125 383C397.864 370.661 394.85 357.94 394.853 344.516C394.848 343.094 394.848 343.094 394.842 341.643C394.831 338.47 394.827 335.297 394.823 332.124C394.817 329.847 394.81 327.57 394.803 325.293C394.782 317.815 394.772 310.337 394.762 302.859C394.758 300.28 394.754 297.701 394.75 295.121C394.733 284.384 394.718 273.647 394.711 262.91C394.709 260.127 394.707 257.344 394.705 254.561C394.705 253.869 394.704 253.177 394.704 252.465C394.695 241.283 394.67 230.103 394.638 218.922C394.604 207.415 394.587 195.909 394.583 184.403C394.581 177.954 394.572 171.505 394.547 165.056C394.523 158.978 394.519 152.901 394.53 146.824C394.53 144.606 394.524 142.389 394.51 140.171C394.414 123.871 395.615 108.177 402.313 93.0625C402.761 92.0183 402.761 92.0183 403.217 90.9529C414.566 65.2537 436.165 46.1906 462 36C478.22 30.1901 494.427 29.7054 511.43 29.773Z" fill="white"/>
<path d="M0 30C21.78 30 43.56 30 66 30C72.5758 49.5631 79.0448 69.149 85.3125 88.8125C91.6574 108.716 98.0659 128.599 104.511 148.471C106.738 155.339 108.965 162.206 111.191 169.074C111.436 169.829 111.681 170.584 111.933 171.362C117.033 187.091 122.114 202.826 127.188 218.562C127.391 219.192 127.594 219.822 127.803 220.472C129.642 226.174 131.48 231.876 133.318 237.579C136.018 245.955 138.72 254.331 141.423 262.706C142.058 264.675 142.694 266.645 143.33 268.614C143.753 269.925 144.176 271.236 144.599 272.548C144.808 273.196 145.017 273.844 145.233 274.512C146.278 277.751 147.324 280.99 148.369 284.229C152.757 297.817 157.135 311.407 161.482 325.007C162.112 326.975 162.741 328.942 163.371 330.91C163.678 331.868 163.678 331.868 163.991 332.845C164.193 333.479 164.396 334.112 164.605 334.764C166.163 339.63 167.716 344.497 169.266 349.365C169.969 351.561 170.672 353.757 171.375 355.953C171.839 357.418 171.839 357.418 172.313 358.912C173.778 363.474 175.309 368.01 176.977 372.503C177.269 373.297 177.561 374.09 177.862 374.908C179.224 377.412 180.574 378.53 183 380C186.712 380.553 188.383 380.403 191.546 378.338C194.358 375.659 195.159 373.827 196.332 370.148C196.729 368.933 197.125 367.718 197.534 366.466C197.961 365.103 198.387 363.739 198.812 362.375C199.285 360.905 199.76 359.436 200.235 357.967C201.561 353.861 202.865 349.748 204.165 345.633C205.587 341.148 207.027 336.668 208.465 332.188C210.399 326.156 212.331 320.123 214.256 314.088C219.993 296.097 225.804 278.131 231.631 260.169C233.864 253.285 236.096 246.4 238.328 239.516C238.693 238.391 238.693 238.391 239.065 237.243C243.775 222.711 248.456 208.17 253.125 193.625C260.174 171.666 267.253 149.718 274.347 127.774C275.445 124.378 276.543 120.982 277.641 117.586C277.859 116.911 278.077 116.237 278.301 115.542C281.763 104.834 285.219 94.1246 288.672 83.4141C289.137 81.9709 289.603 80.5276 290.068 79.0844C292.068 72.8822 294.067 66.6798 296.066 60.4772C297.067 57.3701 298.069 54.2632 299.07 51.1562C299.603 49.5014 299.603 49.5014 300.147 47.8131C300.48 46.7797 300.813 45.7464 301.157 44.6816C301.585 43.3536 301.585 43.3536 302.021 41.9987C303.329 37.9929 304.668 33.9975 306 30C327.78 30 349.56 30 372 30C371.356 34.5086 370.867 37.8984 369.488 42.05C369.179 42.9914 368.869 43.9327 368.551 44.9025C368.213 45.9105 367.875 46.9185 367.527 47.957C367.173 49.0305 366.819 50.1039 366.454 51.2099C365.688 53.5293 364.92 55.8479 364.15 58.1658C362.282 63.7854 360.43 69.4105 358.578 75.0353C357.942 76.966 357.306 78.8965 356.669 80.8269C352.813 92.529 349.051 104.26 345.312 116C338.851 136.269 332.313 156.513 325.75 176.75C323.769 182.858 321.789 188.966 319.809 195.074C319.564 195.829 319.319 196.584 319.067 197.362C313.967 213.091 308.886 228.826 303.812 244.562C303.609 245.193 303.406 245.824 303.196 246.474C300.948 253.448 298.7 260.421 296.452 267.395C294.181 274.438 291.91 281.481 289.638 288.523C289.011 290.467 288.384 292.41 287.758 294.353C285.889 300.148 284.019 305.943 282.145 311.736C281.113 314.927 280.082 318.118 279.051 321.309C278.846 321.942 278.641 322.575 278.431 323.228C275.564 332.103 272.73 340.988 269.917 349.881C268.336 354.878 266.747 359.873 265.156 364.867C264.074 368.266 262.996 371.667 261.93 375.072C254.222 399.684 245.466 422.241 221.766 435.656C203.323 444.617 182.746 447.131 163 441C143.178 433.2 128.313 420.279 119 401C116.713 395.572 114.986 389.949 113.219 384.336C112.708 382.755 112.196 381.175 111.682 379.595C110.626 376.337 109.579 373.076 108.539 369.813C107.083 365.251 105.603 360.697 104.113 356.146C101.476 348.081 98.8594 340.009 96.2478 331.936C95.218 328.753 94.1869 325.571 93.1559 322.388C84.2959 295.039 75.4651 267.68 66.6472 240.317C63.7715 231.393 60.8942 222.47 58.0156 213.547C57.8089 212.906 57.6022 212.265 57.3892 211.605C56.3442 208.366 55.2991 205.126 54.254 201.887C52.3774 196.07 50.5011 190.254 48.6247 184.437C47.5832 181.208 46.5416 177.979 45.5 174.75C45.0833 173.458 44.6667 172.167 44.25 170.875C44.0438 170.236 43.8375 169.596 43.625 168.938C42.6875 166.031 42.6875 166.031 41.75 163.125C41.5437 162.486 41.3375 161.846 41.125 161.187C40.7084 159.896 40.2918 158.604 39.8751 157.313C38.8327 154.081 37.7902 150.85 36.7477 147.618C34.8824 141.836 33.0172 136.053 31.1523 130.271C30.1237 127.082 29.0951 123.892 28.0664 120.703C27.8622 120.07 27.658 119.437 27.4477 118.785C24.5721 109.87 21.6939 100.955 18.8141 92.0416C17.1918 87.0205 15.5703 81.9991 13.9489 76.9777C12.6293 72.8915 11.3089 68.8056 9.98786 64.7199C8.97936 61.6 7.97221 58.4796 6.96484 55.3594C6.6064 54.2518 6.24795 53.1442 5.87865 52.0031C4.31241 47.148 2.75939 42.2888 1.2522 37.415C0.888206 36.2423 0.888206 36.2423 0.516861 35.046C0 33 0 33 0 30Z" fill="white"/>
<path d="M1760.34 44.7421C1771.23 53.9816 1779.09 63.2425 1784 76.7304C1784.45 77.9389 1784.45 77.9389 1784.9 79.1719C1789.74 92.629 1794.02 106.285 1798.41 119.896C1799.73 124.011 1801.07 128.124 1802.4 132.237C1804.83 139.774 1807.26 147.312 1809.69 154.851C1811.38 160.07 1813.06 165.289 1814.75 170.507C1814.96 171.176 1815.18 171.846 1815.4 172.535C1815.83 173.86 1816.26 175.184 1816.68 176.509C1820.58 188.566 1824.47 200.624 1828.35 212.684C1831.23 221.607 1834.11 230.53 1836.98 239.453C1837.29 240.414 1837.29 240.414 1837.61 241.395C1838.66 244.634 1839.7 247.874 1840.75 251.113C1842.62 256.93 1844.5 262.746 1846.38 268.563C1847.42 271.792 1848.46 275.021 1849.5 278.25C1849.92 279.542 1850.33 280.833 1850.75 282.125C1850.96 282.764 1851.16 283.404 1851.38 284.062C1862.59 318.837 1873.81 353.611 1885.03 388.385C1885.41 389.582 1885.8 390.779 1886.2 392.012C1886.96 394.376 1887.72 396.741 1888.48 399.105C1890.34 404.876 1892.21 410.644 1894.09 416.406C1895.03 419.282 1895.97 422.159 1896.9 425.036C1897.36 426.421 1897.81 427.806 1898.26 429.19C1898.89 431.108 1899.52 433.028 1900.14 434.947C1900.5 436.045 1900.86 437.144 1901.23 438.275C1902 441 1902 441 1902 444C1880.22 444 1858.44 444 1836 444C1832.62 434.998 1832.62 434.998 1831.26 430.836C1830.95 429.895 1830.64 428.954 1830.32 427.984C1829.83 426.48 1829.83 426.48 1829.33 424.945C1828.98 423.873 1828.63 422.801 1828.27 421.696C1827.11 418.173 1825.96 414.649 1824.81 411.125C1824.41 409.901 1824.01 408.676 1823.6 407.415C1817.77 389.564 1812 371.693 1806.29 353.802C1800.32 335.102 1794.3 316.423 1788.25 297.75C1787.78 296.294 1787.31 294.839 1786.84 293.384C1786.6 292.662 1786.37 291.94 1786.13 291.197C1785.18 288.279 1784.24 285.362 1783.29 282.445C1782.82 280.986 1782.35 279.527 1781.88 278.068C1776.04 260.05 1770.23 242.026 1764.42 224.001C1763.8 222.096 1763.19 220.192 1762.57 218.287C1761.96 216.384 1761.35 214.482 1760.73 212.58C1757.96 203.963 1755.17 195.347 1752.39 186.732C1751.07 182.658 1749.76 178.583 1748.44 174.508C1747.37 171.193 1746.3 167.878 1745.23 164.564C1741.17 152.003 1737.12 139.44 1733.18 126.84C1732.9 125.929 1732.61 125.019 1732.32 124.081C1731.04 119.988 1729.77 115.893 1728.51 111.793C1728.08 110.402 1727.65 109.012 1727.21 107.621C1726.86 106.45 1726.5 105.279 1726.12 104.072C1724.77 100.379 1723.39 97.0911 1720.25 94.6249C1716.82 93.6716 1714.42 94.0834 1711 94.9999C1707.74 98.4194 1706.18 101.63 1704.75 106.101C1704.36 107.325 1703.96 108.548 1703.55 109.809C1703.13 111.152 1702.7 112.496 1702.28 113.84C1701.83 115.254 1701.37 116.668 1700.92 118.081C1699.69 121.899 1698.47 125.721 1697.26 129.544C1695.98 133.574 1694.69 137.6 1693.39 141.627C1691.27 148.232 1689.16 154.839 1687.05 161.448C1684.3 170.078 1681.52 178.701 1678.74 187.32C1678.53 187.96 1678.32 188.599 1678.11 189.258C1677.09 192.436 1676.06 195.614 1675.03 198.792C1672.99 205.117 1670.95 211.443 1668.91 217.769C1665.78 227.477 1662.65 237.184 1659.52 246.89C1657.59 252.843 1655.67 258.797 1653.75 264.75C1653.54 265.402 1653.33 266.053 1653.11 266.724C1647.13 285.266 1641.17 303.817 1635.25 322.377C1628.19 344.482 1621.03 366.557 1613.87 388.63C1613.16 390.836 1612.44 393.043 1611.72 395.25C1610.86 397.926 1609.99 400.603 1609.12 403.279C1604.72 416.844 1600.36 430.423 1596 444C1574.22 444 1552.44 444 1530 444C1530.7 439.078 1531.4 435.276 1532.91 430.672C1533.3 429.448 1533.7 428.225 1534.11 426.965C1534.55 425.631 1534.99 424.298 1535.43 422.965C1535.89 421.554 1536.34 420.143 1536.8 418.732C1537.79 415.712 1538.77 412.694 1539.76 409.677C1541.33 404.878 1542.9 400.077 1544.46 395.276C1546.07 390.336 1547.68 385.397 1549.29 380.459C1553.88 366.386 1558.43 352.302 1562.97 338.213C1564.2 334.411 1565.42 330.608 1566.65 326.806C1568.28 321.739 1569.92 316.672 1571.55 311.605C1574.03 303.915 1576.51 296.225 1578.99 288.535C1579.19 287.895 1579.4 287.254 1579.61 286.594C1580.66 283.358 1581.7 280.121 1582.75 276.884C1584.62 271.068 1586.5 265.253 1588.38 259.437C1589.42 256.208 1590.46 252.979 1591.5 249.75C1591.92 248.458 1592.33 247.167 1592.75 245.875C1595.25 238.125 1595.25 238.125 1595.88 236.187C1596.29 234.896 1596.71 233.604 1597.12 232.313C1598.17 229.082 1599.21 225.852 1600.25 222.622C1602.12 216.823 1603.99 211.025 1605.86 205.226C1606.9 202.015 1607.93 198.804 1608.97 195.594C1609.17 194.957 1609.38 194.321 1609.59 193.665C1612.38 185.029 1615.16 176.394 1617.96 167.76C1619.49 163.007 1621.03 158.255 1622.56 153.502C1623.63 150.185 1624.7 146.869 1625.78 143.553C1629.79 131.142 1633.8 118.729 1637.64 106.262C1637.91 105.38 1638.19 104.498 1638.47 103.589C1639.68 99.6798 1640.88 95.7682 1642.05 91.8476C1644.25 84.6133 1646.86 77.7224 1650.05 70.8632C1650.38 70.1649 1650.7 69.4666 1651.04 68.7471C1654.13 62.3268 1658.04 57.1484 1663 51.9999C1664.12 50.8185 1664.12 50.8185 1665.27 49.6132C1690.47 25.0387 1732.71 23.3393 1760.34 44.7421Z" fill="white"/>
<path d="M1274 30C1373.66 30 1473.32 30 1576 30C1576 50.79 1576 71.58 1576 93C1536.73 93 1497.46 93 1457 93C1457 208.83 1457 324.66 1457 444C1436.21 444 1415.42 444 1394 444C1394 328.17 1394 212.34 1394 93C1354.4 93 1314.8 93 1274 93C1274 72.21 1274 51.42 1274 30Z" fill="white"/>
<path d="M1160 30C1180.79 30 1201.58 30 1223 30C1223 166.62 1223 303.24 1223 444C1202.21 444 1181.42 444 1160 444C1160 307.38 1160 170.76 1160 30Z" fill="white"/>
<path d="M2277 0C2279.64 0 2282.28 0 2285 0C2287.64 6.6 2290.28 13.2 2293 20C2295.64 13.4 2298.28 6.8 2301 0C2303.31 0 2305.62 0 2308 0C2308 10.23 2308 20.46 2308 31C2306.02 31 2304.04 31 2302 31C2301.5 24.565 2301.5 24.565 2301 18C2299.35 22.29 2297.7 26.58 2296 31C2294.02 31 2292.04 31 2290 31C2288.35 27.04 2286.7 23.08 2285 19C2284.67 22.96 2284.34 26.92 2284 31C2281.69 31 2279.38 31 2277 31C2277 20.77 2277 10.54 2277 0ZM2283 14C2284 16 2284 16 2284 16L2283 14Z" fill="white"/>
<path d="M2250 0C2257.92 0 2265.84 0 2274 0C2274 1.98 2274 3.96 2274 6C2271.03 6 2268.06 6 2265 6C2265 14.25 2265 22.5 2265 31C2263.02 31 2261.04 31 2259 31C2259 22.75 2259 14.5 2259 6C2256.03 6 2253.06 6 2250 6C2250 4.02 2250 2.04 2250 0Z" fill="white"/>
</g>
<defs>
<clipPath id="clip0_5772_16108">
<rect width="2308" height="454" fill="white"/>
</clipPath>
</defs>
</svg>
